<?xml version="1.0" encoding="utf-8"?>
<!-- Generated by IcoMoon.io -->
<!DOCTYPE svg PUBLIC "-//W3C//DTD SVG 1.1//EN" "http://www.w3.org/Graphics/SVG/1.1/DTD/svg11.dtd">
<svg version="1.1" xmlns="http://www.w3.org/2000/svg" xmlns:xlink="http://www.w3.org/1999/xlink" width="32" height="32" viewBox="0 0 32 32">
<g>
</g>
	<path d="M18.031 13.906v-1.969q0.875-0.281 1.438-1.141t0.563-1.828v-4q0-1-0.563-1.859t-1.438-1.172v-1.938q3.875 0.375 6.656 3.344t3.25 7.156q-4.438 3.125-9.906 3.406zM17.016 9.969q-0.422 0-0.703-0.297t-0.281-0.703v-4q0-0.438 0.281-0.719t0.703-0.281 0.719 0.281 0.297 0.719v4q0 0.406-0.297 0.703t-0.719 0.297zM16.031 11.938v1.969q-5.5-0.281-9.938-3.406 0.469-4.188 3.266-7.156t6.672-3.344v1.938q-0.875 0.313-1.453 1.172t-0.578 1.859v4q0 0.969 0.578 1.813t1.453 1.156zM28.031 12.625v7.344q0 3.281-1.469 6.047t-4.016 4.375-5.531 1.609-5.531-1.609-4.016-4.375-1.469-6.047v-7.344q5.031 3.344 11.016 3.344t11.016-3.344z" fill="#000000" />
</svg>
