<?xml version="1.0" encoding="utf-8"?>
<!-- Generated by IcoMoon.io -->
<!DOCTYPE svg PUBLIC "-//W3C//DTD SVG 1.1//EN" "http://www.w3.org/Graphics/SVG/1.1/DTD/svg11.dtd">
<svg version="1.1" xmlns="http://www.w3.org/2000/svg" xmlns:xlink="http://www.w3.org/1999/xlink" width="32" height="32" viewBox="0 0 32 32">
<g>
</g>
	<path d="M28 32h-24q-1.656 0-2.828-1.172t-1.172-2.828v-24q0-1.656 1.172-2.828t2.828-1.172h24q1.656 0 2.828 1.172t1.172 2.828v24q0 1.656-1.172 2.828t-2.828 1.172zM14 2q-0.844 0-1.422 0.578t-0.578 1.422 0.578 1.422 1.406 0.578 1.422-0.578 0.594-1.422-0.578-1.422-1.422-0.578zM20 2q-0.844 0-1.422 0.578t-0.578 1.422 0.578 1.422 1.406 0.578 1.422-0.578 0.594-1.422-0.578-1.422-1.422-0.578zM26 2q-0.844 0-1.422 0.578t-0.578 1.422 0.578 1.422 1.406 0.578 1.422-0.578 0.594-1.422-0.578-1.422-1.422-0.578zM28 10q0-0.813-0.594-1.406t-1.406-0.594h-20q-0.844 0-1.422 0.594t-0.578 1.406v16q0 0.813 0.578 1.406t1.422 0.594h20q0.813 0 1.406-0.594t0.594-1.406v-16zM23 22h-6q-0.406 0-0.703-0.297t-0.297-0.703 0.297-0.703 0.703-0.297h6q0.406 0 0.703 0.297t0.297 0.703-0.297 0.703-0.703 0.297zM13.656 17.75l-3.906 3.906q-0.313 0.313-0.75 0.313t-0.734-0.313-0.297-0.734 0.313-0.703l3.219-3.219-3.219-3.219q-0.313-0.281-0.313-0.703t0.297-0.734 0.734-0.313 0.75 0.313l3.906 3.906q0.125 0.125 0.094 0.156 0.219 0.313 0.203 0.688t-0.297 0.656z" fill="#000000" />
</svg>
