<?xml version="1.0" encoding="utf-8"?>
<!-- Generated by IcoMoon.io -->
<!DOCTYPE svg PUBLIC "-//W3C//DTD SVG 1.1//EN" "http://www.w3.org/Graphics/SVG/1.1/DTD/svg11.dtd">
<svg version="1.1" xmlns="http://www.w3.org/2000/svg" xmlns:xlink="http://www.w3.org/1999/xlink" width="32" height="32" viewBox="0 0 32 32">
<g>
</g>
	<path d="M30 7.969q-0.625 0-2.063-0.625t-3.031-1.375-4.063-1.375-4.844-0.625-4.844 0.625-4.063 1.375-3.031 1.375-2.063 0.625q-0.844 0-1.422-0.563t-0.578-1.406q0-0.375 0.422-0.938t1.078-1q6.688-4.063 14.5-4.063t14.5 4.063q1.5 0.75 1.5 1.938 0 0.844-0.578 1.406t-1.422 0.563zM5.281 11.125q4.938-3.125 10.719-3.125t10.719 3.125q1.281 0.813 1.281 1.875 0 0.813-0.609 1.391t-1.391 0.609v-0.031q-0.281 0-1.297-0.469t-2.203-1.031-2.984-1.031-3.516-0.469-3.516 0.469-2.984 1.031-2.203 1.031-1.297 0.469q-0.844 0-1.422-0.563t-0.578-1.406q0-1.063 1.281-1.875zM16 15.969q1.281 0 2.906 0.563t2.859 1.516 1.234 1.953q0 0.844-0.594 1.422t-1.406 0.578-1.5-0.313-1.094-0.688-1.047-0.703-1.359-0.328q-0.75 0-1.391 0.328t-1.031 0.703-1.078 0.688-1.5 0.313-1.406-0.578-0.594-1.422q0-1 1.234-1.953t2.859-1.516 2.906-0.563zM16 24q1.656 0 2.828 1.172t1.172 2.828-1.172 2.828-2.828 1.172-2.828-1.172-1.172-2.828 1.172-2.828 2.828-1.172z" fill="#000000" />
</svg>
