<?xml version="1.0" encoding="utf-8"?>
<!-- Generated by IcoMoon.io -->
<!DOCTYPE svg PUBLIC "-//W3C//DTD SVG 1.1//EN" "http://www.w3.org/Graphics/SVG/1.1/DTD/svg11.dtd">
<svg version="1.1" xmlns="http://www.w3.org/2000/svg" xmlns:xlink="http://www.w3.org/1999/xlink" width="32" height="32" viewBox="0 0 32 32">
<g>
</g>
	<path d="M25.313 21.219l-8.5 10.781-8.5-10.781q-2.281-2.375-3.109-5.578t0-6.406 3.109-5.609q1.75-1.781 3.984-2.703t4.516-0.922 4.516 0.922 3.984 2.703q2.281 2.406 3.109 5.609t0 6.406-3.109 5.578zM16.828 4.031q-3.328 0-5.672 2.344t-2.344 5.656 2.344 5.641 5.672 2.328 5.672-2.328 2.344-5.641-2.344-5.656-5.672-2.344zM16.844 16q-1.656 0-2.828-1.172t-1.172-2.828 1.172-2.828 2.828-1.172 2.828 1.172 1.172 2.828-1.172 2.828-2.828 1.172z" fill="#000000" />
</svg>
