<?xml version="1.0" encoding="utf-8"?>
<!-- Generated by IcoMoon.io -->
<!DOCTYPE svg PUBLIC "-//W3C//DTD SVG 1.1//EN" "http://www.w3.org/Graphics/SVG/1.1/DTD/svg11.dtd">
<svg version="1.1" xmlns="http://www.w3.org/2000/svg" xmlns:xlink="http://www.w3.org/1999/xlink" width="32" height="32" viewBox="0 0 32 32">
<g>
</g>
	<path d="M25.313 21.219l-8.5 10.781-8.5-10.781q-2.281-2.375-3.109-5.578t0-6.406 3.125-5.594 5.391-3.234 6.188 0 5.391 3.234 3.125 5.594 0 6.406-3.109 5.578zM16.828 4.031q-3.328 0-5.672 2.344t-2.344 5.656 2.344 5.641 5.672 2.328 5.672-2.328 2.344-5.641-2.344-5.656-5.672-2.344zM20.844 14h-2v2q0 0.813-0.594 1.406t-1.422 0.594-1.406-0.594-0.578-1.406v-2h-2q-0.844 0-1.422-0.594t-0.578-1.422 0.578-1.406 1.422-0.578h2v-2q0-0.844 0.578-1.422t1.406-0.578 1.422 0.578 0.594 1.422v2h2q0.813 0 1.406 0.578t0.594 1.406-0.594 1.422-1.406 0.594z" fill="#000000" />
</svg>
