<?xml version="1.0" encoding="utf-8"?>
<!-- Generated by IcoMoon.io -->
<!DOCTYPE svg PUBLIC "-//W3C//DTD SVG 1.1//EN" "http://www.w3.org/Graphics/SVG/1.1/DTD/svg11.dtd">
<svg version="1.1" xmlns="http://www.w3.org/2000/svg" xmlns:xlink="http://www.w3.org/1999/xlink" width="32" height="32" viewBox="0 0 32 32">
<g>
</g>
	<path d="M31 32h-20q-0.406 0-0.703-0.297t-0.297-0.703 0.297-0.703 0.703-0.297h19v-19q0-0.406 0.297-0.703t0.703-0.297 0.703 0.297 0.297 0.703v20q0 0.406-0.297 0.703t-0.703 0.297zM30 7q0-0.406-0.297-0.703t-0.703-0.297-0.703 0.297-0.297 0.703v1h-2v-3q0-0.406-0.297-0.703t-0.703-0.297-0.703 0.297-0.297 0.703v3h-2v-1q0-0.406-0.297-0.703t-0.703-0.297-0.703 0.297-0.297 0.703v1h-2v-3q0-0.406-0.297-0.703t-0.703-0.297-0.703 0.297-0.297 0.703v3h-2v-1q0-0.406-0.297-0.703t-0.703-0.297-0.703 0.297-0.297 0.703v1h-2v-3q0-0.406-0.297-0.703t-0.703-0.297-0.703 0.297-0.297 0.703v3h-3q-0.406 0-0.703 0.297t-0.297 0.703 0.297 0.703 0.703 0.297h3v2h-1q-0.406 0-0.703 0.297t-0.297 0.703 0.297 0.703 0.703 0.297h1v2h-3q-0.406 0-0.703 0.297t-0.297 0.703 0.297 0.703 0.703 0.297h3v2h-1q-0.406 0-0.703 0.297t-0.297 0.703 0.297 0.703 0.703 0.297h1v2h-3q-0.406 0-0.703 0.297t-0.297 0.703 0.297 0.703 0.703 0.297h3v2h-1q-0.406 0-0.703 0.297t-0.297 0.703 0.297 0.703 0.703 0.297h1v2h-6q-0.813 0-1.406-0.578t-0.594-1.422v-28q0-0.813 0.594-1.406t1.406-0.594h28q0.813 0 1.406 0.594t0.594 1.406v6h-2v-1z" fill="#000000" />
</svg>
