<?xml version="1.0" encoding="utf-8"?>
<!-- Generated by IcoMoon.io -->
<!DOCTYPE svg PUBLIC "-//W3C//DTD SVG 1.1//EN" "http://www.w3.org/Graphics/SVG/1.1/DTD/svg11.dtd">
<svg version="1.1" xmlns="http://www.w3.org/2000/svg" xmlns:xlink="http://www.w3.org/1999/xlink" width="32" height="32" viewBox="0 0 32 32">
<g>
</g>
	<path d="M30 32h-27.969q-0.844 0-1.422-0.578t-0.578-1.406 0.578-1.422 1.422-0.594h27.969q0.844 0 1.422 0.594t0.578 1.422-0.578 1.406-1.422 0.578zM25.844 24.781q-0.063 0.063-0.266 0.281t-0.328 0.344-0.344 0.281-0.438 0.234-0.469 0.078h-8q-0.219 0-0.453-0.094t-0.469-0.266-0.375-0.297-0.328-0.328-0.219-0.234l-13.625-13.625q-0.531-0.563-0.531-1.328t0.531-1.297l8-8q0.531-0.531 1.297-0.531t1.328 0.531l18.281 18.313q0.563 0.531 0.563 1.297t-0.563 1.328q-0.156 0.188-1.625 1.5t-1.969 1.813zM17 11.625l-5.375 5.375 5 5h6.781l2-2z" fill="#000000" />
</svg>
