<?xml version="1.0" encoding="utf-8"?>
<!-- Generated by IcoMoon.io -->
<!DOCTYPE svg PUBLIC "-//W3C//DTD SVG 1.1//EN" "http://www.w3.org/Graphics/SVG/1.1/DTD/svg11.dtd">
<svg version="1.1" xmlns="http://www.w3.org/2000/svg" xmlns:xlink="http://www.w3.org/1999/xlink" width="32" height="32" viewBox="0 0 32 32">
<g>
</g>
	<path d="M28 32h-24q-1.656 0-2.828-1.172t-1.172-2.828v-24q0-1.656 1.172-2.828t2.828-1.172h24q1.656 0 2.828 1.172t1.172 2.828v24q0 1.656-1.172 2.828t-2.828 1.172zM14 8h-2v-2q0-0.844-0.594-1.422t-1.422-0.578-1.406 0.578-0.578 1.422v2h-2q-0.844 0-1.422 0.594t-0.578 1.422 0.578 1.406 1.422 0.578h2v2q0 0.813 0.578 1.406t1.406 0.594 1.422-0.594 0.594-1.406v-2h2q0.813 0 1.406-0.578t0.594-1.406-0.594-1.422-1.406-0.594zM28 8q0-1.656-1.156-2.844l-21.688 21.688q1.188 1.156 2.844 1.156h16q1.656 0 2.828-1.172t1.172-2.828v-16zM24 24h-8q-0.844 0-1.422-0.594t-0.578-1.422 0.578-1.406 1.422-0.578h8q0.813 0 1.406 0.578t0.594 1.406-0.578 1.422-1.422 0.594z" fill="#000000" />
</svg>
