<?xml version="1.0" encoding="utf-8"?>
<!-- Generated by IcoMoon.io -->
<!DOCTYPE svg PUBLIC "-//W3C//DTD SVG 1.1//EN" "http://www.w3.org/Graphics/SVG/1.1/DTD/svg11.dtd">
<svg version="1.1" xmlns="http://www.w3.org/2000/svg" xmlns:xlink="http://www.w3.org/1999/xlink" width="32" height="32" viewBox="0 0 32 32">
<g>
</g>
	<path d="M28 32h-24q-1.656 0-2.828-1.172t-1.172-2.828v-24q0-1.656 1.172-2.828t2.828-1.172h24q1.656 0 2.828 1.172t1.172 2.828v24q0 1.656-1.172 2.828t-2.828 1.172zM28 8q0-1.656-1.188-2.844l-3.75 3.781q-1.375-1.406-3.203-2.172t-3.859-0.766q-2.719 0-5.016 1.344t-3.641 3.641-1.344 5.016q0 2.031 0.766 3.859t2.172 3.203l-3.781 3.781q1.188 1.156 2.844 1.156h16q1.656 0 2.828-1.172t1.172-2.828v-16zM16 26q-4.156 0-7.063-2.938l14.125-14.125q1.406 1.375 2.172 3.203t0.766 3.859q0 2.719-1.344 5.016t-3.641 3.641-5.016 1.344z" fill="#000000" />
</svg>
