<?xml version="1.0" encoding="utf-8"?>
<!-- Generated by IcoMoon.io -->
<!DOCTYPE svg PUBLIC "-//W3C//DTD SVG 1.1//EN" "http://www.w3.org/Graphics/SVG/1.1/DTD/svg11.dtd">
<svg version="1.1" xmlns="http://www.w3.org/2000/svg" xmlns:xlink="http://www.w3.org/1999/xlink" width="32" height="32" viewBox="0 0 32 32">
<g>
</g>
	<path d="M31.719 30.344l-1.375 1.375q-0.313 0.281-2.703 0.281t-2.703-0.281l-9.219-12.375-2.125 1.969q-0.781 0.719-2.563 0.672t-2.594-0.797q-0.5-0.469-0.438-1.141t0.344-1.219 0.625-0.859l9-9q0.313-0.281 0.844-0.547t1.234-0.375 1.203 0.359q0.781 0.75 0.719 2.969t-0.844 2.969l-1.656 1.5 12.25 9.125q0.281 0.281 0.281 2.672t-0.281 2.703zM8.438 21.188l0.031 0.031zM21.281 8.406h-0.031v-0.031zM12.281 1.688q-0.281-0.281-0.281-0.688t0.281-0.703 0.688-0.297 0.688 0.313l5.75 5.75-1.375 1.375zM15.031 10.438l-5.75-5.75q-0.281-0.313-0.281-0.703t0.281-0.688 0.688-0.297 0.688 0.313l5.75 5.75zM12.031 13.438l-5.75-5.75q-0.281-0.313-0.281-0.703t0.281-0.688 0.688-0.297 0.688 0.281l5.75 5.781zM9.031 16.406l-5.75-5.75q-0.281-0.281-0.281-0.672t0.281-0.688 0.688-0.297 0.688 0.281l5.75 5.75zM6.031 19.406l-5.75-5.75q-0.281-0.281-0.281-0.688t0.281-0.688 0.688-0.281 0.688 0.281l5.75 5.75z" fill="#000000" />
</svg>
