<?xml version="1.0" encoding="utf-8"?>
<!-- Generated by IcoMoon.io -->
<!DOCTYPE svg PUBLIC "-//W3C//DTD SVG 1.1//EN" "http://www.w3.org/Graphics/SVG/1.1/DTD/svg11.dtd">
<svg version="1.1" xmlns="http://www.w3.org/2000/svg" xmlns:xlink="http://www.w3.org/1999/xlink" width="32" height="32" viewBox="0 0 32 32">
<g>
</g>
	<path d="M23 28q-3.719 0-6.359-2.641t-2.641-6.359q0-0.469 0.063-1h9.438q0.313-0.344 0.453-2t-0.141-2l-2.125-3.906q0.719-0.094 1.313-0.094 3.719 0 6.359 2.641t2.641 6.359-2.641 6.359-6.359 2.641zM21.688 16h-16.406q-0.313-0.313-0.313-0.781t0.313-0.813l7.5-14.094q0.281-0.344 0.703-0.344t0.703 0.344l7.5 14.094q0.313 0.344 0.297 0.813t-0.297 0.781zM12 19q0 2.531 1.063 4.734t2.938 3.766v3.5q0 0.406-0.297 0.703t-0.703 0.297h-14q-0.406 0-0.703-0.297t-0.297-0.703v-14q0-0.406 0.297-0.703t0.703-0.297h2.031q0.125 1.656 0.438 2h8.594q-0.063 0.75-0.063 1z" fill="#000000" />
</svg>
