<?xml version="1.0" encoding="utf-8"?>
<!-- Generated by IcoMoon.io -->
<!DOCTYPE svg PUBLIC "-//W3C//DTD SVG 1.1//EN" "http://www.w3.org/Graphics/SVG/1.1/DTD/svg11.dtd">
<svg version="1.1" xmlns="http://www.w3.org/2000/svg" xmlns:xlink="http://www.w3.org/1999/xlink" width="32" height="32" viewBox="0 0 32 32">
<g>
</g>
	<path d="M28 32h-16q-1.656 0-2.828-1.172t-1.172-2.828v-4h-4q-1.656 0-2.828-1.172t-1.172-2.828v-16q0-1.656 1.172-2.828t2.828-1.172h16q1.656 0 2.828 1.172t1.172 2.828v4h4q1.656 0 2.828 1.172t1.172 2.828v16q0 1.656-1.172 2.828t-2.828 1.172zM28 13q0-0.406-0.297-0.703t-0.703-0.297h-14q-0.406 0-0.703 0.297t-0.297 0.703v14q0 0.406 0.297 0.703t0.703 0.297h14q0.406 0 0.703-0.297t0.297-0.703v-14z" fill="#000000" />
</svg>
