<?xml version="1.0" encoding="utf-8"?>
<!-- Generated by IcoMoon.io -->
<!DOCTYPE svg PUBLIC "-//W3C//DTD SVG 1.1//EN" "http://www.w3.org/Graphics/SVG/1.1/DTD/svg11.dtd">
<svg version="1.1" xmlns="http://www.w3.org/2000/svg" xmlns:xlink="http://www.w3.org/1999/xlink" width="32" height="32" viewBox="0 0 32 32">
<g>
</g>
	<path d="M26 8q-2 0-3.219-1.625-5.656 1.25-9.672 6.313t-4.891 12.031q0.813 0.531 1.297 1.406t0.484 1.875q0 1.656-1.172 2.828t-2.828 1.172-2.828-1.172-1.172-2.828q0-1.094 0.547-2t1.453-1.438v-22.563q0-0.813 0.578-1.406t1.406-0.594 1.422 0.594 0.594 1.406v11.094q2.5-4.25 6.219-7.047t8.125-3.672q0.469-1.063 1.453-1.719t2.203-0.656q1.656 0 2.828 1.172t1.172 2.828-1.172 2.828-2.828 1.172zM6.016 26q-0.828 0-1.422 0.578t-0.594 1.406 0.594 1.422 1.422 0.594 1.406-0.594 0.578-1.422-0.578-1.406-1.406-0.578zM26.016 2q-0.828 0-1.422 0.594t-0.594 1.422 0.594 1.406 1.422 0.578 1.406-0.594 0.578-1.406-0.578-1.406-1.406-0.594z" fill="#000000" />
</svg>
