<?xml version="1.0" encoding="utf-8"?>
<!-- Generated by IcoMoon.io -->
<!DOCTYPE svg PUBLIC "-//W3C//DTD SVG 1.1//EN" "http://www.w3.org/Graphics/SVG/1.1/DTD/svg11.dtd">
<svg version="1.1" xmlns="http://www.w3.org/2000/svg" xmlns:xlink="http://www.w3.org/1999/xlink" width="32" height="32" viewBox="0 0 32 32">
<g>
</g>
	<path d="M19 29l-18.156-18.094q-0.688-0.688-0.828-1.969t0.344-2.719 1.453-2.406l2-2q0.969-0.969 2.406-1.453t2.719-0.344 1.969 0.828l18.094 18.156 3 13zM7.344 8.875q-0.906 0.938-1.219 2.375t0.125 2.344q0 0.031-0.016 0.094l-0.016 0.063 10.625 10.625q0.594-0.688 0.922-1.781t0.344-2-0.109-1.594l-10.375-10.375zM10.156 2.625q-0.75-0.813-2.469-0.594t-2.813 1.313l-1.531 1.531q-1.094 1.094-1.313 2.813t0.594 2.469l1.438 1.469q0.281-2.344 1.75-3.813l2-2q1.469-1.469 3.813-1.719zM14.125 6.594q-0.75-0.781-2.453-0.563t-2.797 1.313l-0.25 0.25 10.375 10.406q0.688 0.125 1.594 0.109t2-0.344 1.781-0.922zM27.25 19.75l-1.719-1.719q-1.125 0.844-2.672 1.375t-2.859 0.563q0 1.313-0.547 2.891t-1.391 2.703l1.688 1.688 4.75 0.906q0.5-1.438 1.359-2.297t2.297-1.359z" fill="#000000" />
</svg>
