<?xml version="1.0" encoding="utf-8"?>
<!-- Generated by IcoMoon.io -->
<!DOCTYPE svg PUBLIC "-//W3C//DTD SVG 1.1//EN" "http://www.w3.org/Graphics/SVG/1.1/DTD/svg11.dtd">
<svg version="1.1" xmlns="http://www.w3.org/2000/svg" xmlns:xlink="http://www.w3.org/1999/xlink" width="32" height="32" viewBox="0 0 32 32">
<g>
</g>
	<path d="M28 7.438v12.563q0 2.719-1.344 5.016t-3.641 3.641-5.016 1.344v2l-6-4 6-4v2q2.5 0 4.25-1.75t1.75-4.25v-12.563q-0.906-0.531-1.453-1.438t-0.547-2q0-1.656 1.172-2.828t2.828-1.172 2.828 1.172 1.172 2.828q0 1.094-0.547 2t-1.453 1.438zM26 2q-0.844 0-1.422 0.578t-0.578 1.422 0.578 1.422 1.406 0.578 1.422-0.594 0.594-1.422-0.578-1.406-1.422-0.578zM14 6q-2.5 0-4.25 1.75t-1.75 4.25v12.563q0.906 0.531 1.453 1.438t0.547 2q0 1.656-1.172 2.828t-2.828 1.172-2.828-1.172-1.172-2.828q0-1.094 0.547-2t1.453-1.438v-12.563q0-2.719 1.344-5.016t3.641-3.641 5.016-1.344v-2l6 4-6 4v-2zM6.016 26q-0.828 0-1.422 0.578t-0.594 1.422 0.578 1.422 1.422 0.578 1.422-0.594 0.578-1.422-0.578-1.406-1.406-0.578z" fill="#000000" />
</svg>
