<?xml version="1.0" encoding="utf-8"?>
<!-- Generated by IcoMoon.io -->
<!DOCTYPE svg PUBLIC "-//W3C//DTD SVG 1.1//EN" "http://www.w3.org/Graphics/SVG/1.1/DTD/svg11.dtd">
<svg version="1.1" xmlns="http://www.w3.org/2000/svg" xmlns:xlink="http://www.w3.org/1999/xlink" width="32" height="32" viewBox="0 0 32 32">
<g>
</g>
	<path d="M26 32q-1.219 0-2.203-0.656t-1.453-1.719q-4.406-0.875-8.125-3.672t-6.219-7.047v5.656q0.906 0.531 1.453 1.438t0.547 2q0 1.656-1.172 2.828t-2.828 1.172-2.828-1.172-1.172-2.828q0-1.094 0.547-2t1.453-1.438v-17.125q-0.906-0.531-1.453-1.438t-0.547-2q0-1.656 1.172-2.828t2.828-1.172 2.828 1.172 1.172 2.828q0 1.031-0.484 1.906t-1.297 1.406q0.875 6.969 4.906 12.016t9.656 6.297q1.219-1.625 3.219-1.625 1.656 0 2.828 1.172t1.172 2.828-1.172 2.828-2.828 1.172zM5.984 30q0.828 0 1.422-0.578t0.594-1.406-0.594-1.422-1.422-0.594-1.406 0.594-0.578 1.422 0.578 1.406 1.406 0.578zM5.984 2q-0.828 0-1.406 0.578t-0.578 1.422 0.578 1.422 1.406 0.578 1.422-0.594 0.594-1.422-0.594-1.406-1.422-0.578zM25.984 26q-0.828 0-1.406 0.578t-0.578 1.422 0.578 1.422 1.406 0.578 1.422-0.594 0.594-1.422-0.594-1.406-1.422-0.578z" fill="#000000" />
</svg>
