<?xml version="1.0" encoding="utf-8"?>
<!-- Generated by IcoMoon.io -->
<!DOCTYPE svg PUBLIC "-//W3C//DTD SVG 1.1//EN" "http://www.w3.org/Graphics/SVG/1.1/DTD/svg11.dtd">
<svg version="1.1" xmlns="http://www.w3.org/2000/svg" xmlns:xlink="http://www.w3.org/1999/xlink" width="32" height="32" viewBox="0 0 32 32">
<g>
</g>
	<path d="M31.469 31.375q-0.594 0.594-1.406 0.625t-1.375-0.531l-14.031-14.063q-0.563-0.563-0.531-1.375t0.625-1.406 1.406-0.625 1.375 0.531l14.031 14.063q0.563 0.563 0.531 1.375t-0.625 1.406zM20.125 12l-4 1-4.625-4.469q-0.531-0.563-1.344-0.531t-1.406 0.625-0.625 1.406 0.531 1.375l4.469 4.594-1 4q-0.063 0.094-0.172 0.25t-0.172 0.25-0.156 0.203-0.172 0.156-0.188 0.047-0.203-0.094l-3.938-4.813h-6q-0.5-0.156-0.813-0.406t-0.188-0.594l4-6-2.031-6.031q0-0.406 0.297-0.703t0.703-0.297l6.031 2.031 6-4q0.344-0.125 0.594 0.188t0.406 0.813v6l4.781 3.938q0.094 0.094 0.094 0.203t-0.047 0.188-0.156 0.188-0.203 0.172-0.25 0.156-0.219 0.156z" fill="#000000" />
</svg>
