<?xml version="1.0" encoding="utf-8"?>
<!-- Generated by IcoMoon.io -->
<!DOCTYPE svg PUBLIC "-//W3C//DTD SVG 1.1//EN" "http://www.w3.org/Graphics/SVG/1.1/DTD/svg11.dtd">
<svg version="1.1" xmlns="http://www.w3.org/2000/svg" xmlns:xlink="http://www.w3.org/1999/xlink" width="32" height="32" viewBox="0 0 32 32">
<g>
</g>
	<path d="M31 26q0.406 0 0.703 0.297t0.297 0.703v4q0 0.406-0.297 0.703t-0.703 0.297h-4q-0.406 0-0.703-0.297t-0.297-0.703v-1h-20v1q0 0.406-0.297 0.703t-0.703 0.297h-4q-0.406 0-0.703-0.297t-0.297-0.703v-4q0-0.406 0.297-0.703t0.703-0.297h1v-20h-1q-0.406 0-0.703-0.297t-0.297-0.703v-4q0-0.406 0.297-0.703t0.703-0.297h4q0.406 0 0.703 0.297t0.297 0.703v1h20v-1q0-0.406 0.297-0.703t0.703-0.297h4q0.406 0 0.703 0.297t0.297 0.703v4q0 0.406-0.297 0.703t-0.703 0.297h-1v20h1zM2 29.5q0 0.219 0.141 0.359t0.359 0.141h1q0.219 0 0.359-0.141t0.141-0.359v-1q0-0.219-0.141-0.359t-0.359-0.141h-1q-0.219 0-0.359 0.141t-0.141 0.359v1zM4 2.5q0-0.219-0.141-0.359t-0.359-0.141h-1q-0.219 0-0.359 0.141t-0.141 0.359v1q0 0.219 0.141 0.359t0.359 0.141h1q0.219 0 0.359-0.141t0.141-0.359v-1zM26 5v-1h-20v1q0 0.406-0.297 0.703t-0.703 0.297h-1v20h1q0.406 0 0.703 0.297t0.297 0.703v1h20v-1q0-0.406 0.297-0.703t0.703-0.297h1v-20h-1q-0.406 0-0.703-0.297t-0.297-0.703zM30 2.5q0-0.219-0.141-0.359t-0.359-0.141h-1q-0.219 0-0.359 0.141t-0.141 0.359v1q0 0.219 0.141 0.359t0.359 0.141h1q0.219 0 0.359-0.141t0.141-0.359v-1zM29.5 28h-1q-0.219 0-0.359 0.141t-0.141 0.359v1q0 0.219 0.141 0.359t0.359 0.141h1q0.219 0 0.359-0.141t0.141-0.359v-1q0-0.219-0.141-0.359t-0.359-0.141zM23 24h-2q-0.406 0-0.703-0.297t-0.297-0.703v-10q0-0.406 0.297-0.703t0.703-0.297h2q0.406 0 0.703 0.297t0.297 0.703v10q0 0.406-0.297 0.703t-0.703 0.297zM17 24h-2q-0.406 0-0.703-0.297t-0.297-0.703v-6q0-0.406 0.297-0.703t0.703-0.297h2q0.406 0 0.703 0.297t0.297 0.703v6q0 0.406-0.297 0.703t-0.703 0.297zM11 24h-2q-0.406 0-0.703-0.297t-0.297-0.703v-14q0-0.406 0.297-0.703t0.703-0.297h2q0.406 0 0.703 0.297t0.297 0.703v14q0 0.406-0.297 0.703t-0.703 0.297z" fill="#000000" />
</svg>
