<?xml version="1.0" encoding="utf-8"?>
<!-- Generated by IcoMoon.io -->
<!DOCTYPE svg PUBLIC "-//W3C//DTD SVG 1.1//EN" "http://www.w3.org/Graphics/SVG/1.1/DTD/svg11.dtd">
<svg version="1.1" xmlns="http://www.w3.org/2000/svg" xmlns:xlink="http://www.w3.org/1999/xlink" width="32" height="32" viewBox="0 0 32 32">
<g>
</g>
	<path d="M31 8h-30q-0.406 0-0.703-0.297t-0.297-0.703 0.297-0.703 0.703-0.297h30q0.406 0 0.703 0.297t0.297 0.703-0.297 0.703-0.703 0.297zM25 4h-24q-0.406 0-0.703-0.297t-0.297-0.703 0.297-0.703 0.703-0.297h24q0.406 0 0.703 0.297t0.297 0.703-0.297 0.703-0.703 0.297zM10 24q-0.813 0-1.406-0.578t-0.594-1.422v-10q0-0.813 0.594-1.406t1.406-0.594h12q0.844 0 1.422 0.594t0.578 1.406v10q0 0.844-0.578 1.422t-1.422 0.578h-12zM1 26h28q0.406 0 0.703 0.297t0.297 0.703-0.297 0.703-0.703 0.297h-28q-0.406 0-0.703-0.297t-0.297-0.703 0.297-0.703 0.703-0.297zM1 30h24q0.406 0 0.703 0.297t0.297 0.703-0.297 0.703-0.703 0.297h-24q-0.406 0-0.703-0.297t-0.297-0.703 0.297-0.703 0.703-0.297z" fill="#000000" />
</svg>
