<?xml version="1.0" encoding="utf-8"?>
<!-- Generated by IcoMoon.io -->
<!DOCTYPE svg PUBLIC "-//W3C//DTD SVG 1.1//EN" "http://www.w3.org/Graphics/SVG/1.1/DTD/svg11.dtd">
<svg version="1.1" xmlns="http://www.w3.org/2000/svg" xmlns:xlink="http://www.w3.org/1999/xlink" width="32" height="32" viewBox="0 0 32 32">
<g>
</g>
	<path d="M30 16h-12q-0.813 0-1.406-0.594t-0.594-1.406v-10q0-0.813 0.594-1.406t1.406-0.594h12q0.813 0 1.406 0.594t0.594 1.406v10q0 0.813-0.594 1.406t-1.406 0.594zM13 12h-12q-0.406 0-0.703-0.297t-0.297-0.703 0.297-0.703 0.703-0.297h12q0.406 0 0.703 0.297t0.297 0.703-0.297 0.703-0.703 0.297zM1 6h8q0.406 0 0.703 0.297t0.297 0.703-0.297 0.703-0.703 0.297h-8q-0.406 0-0.703-0.297t-0.297-0.703 0.297-0.703 0.703-0.297zM13 4h-12q-0.406 0-0.703-0.297t-0.297-0.703 0.297-0.703 0.703-0.297h12q0.406 0 0.703 0.297t0.297 0.703-0.297 0.703-0.703 0.297zM1 14h10q0.406 0 0.703 0.297t0.297 0.703-0.297 0.703-0.703 0.297h-10q-0.406 0-0.703-0.297t-0.297-0.703 0.297-0.703 0.703-0.297zM1 18h30q0.406 0 0.703 0.297t0.297 0.703-0.297 0.703-0.703 0.297h-30q-0.406 0-0.703-0.297t-0.297-0.703 0.297-0.703 0.703-0.297zM1 22h26q0.406 0 0.703 0.297t0.297 0.703-0.297 0.703-0.703 0.297h-26q-0.406 0-0.703-0.297t-0.297-0.703 0.297-0.703 0.703-0.297zM1 26h28q0.406 0 0.703 0.297t0.297 0.703-0.297 0.703-0.703 0.297h-28q-0.406 0-0.703-0.297t-0.297-0.703 0.297-0.703 0.703-0.297zM1 30h24q0.406 0 0.703 0.297t0.297 0.703-0.297 0.703-0.703 0.297h-24q-0.406 0-0.703-0.297t-0.297-0.703 0.297-0.703 0.703-0.297z" fill="#000000" />
</svg>
