<?xml version="1.0" encoding="utf-8"?>
<!-- Generated by IcoMoon.io -->
<!DOCTYPE svg PUBLIC "-//W3C//DTD SVG 1.1//EN" "http://www.w3.org/Graphics/SVG/1.1/DTD/svg11.dtd">
<svg version="1.1" xmlns="http://www.w3.org/2000/svg" xmlns:xlink="http://www.w3.org/1999/xlink" width="32" height="32" viewBox="0 0 32 32">
<g>
</g>
	<path d="M31.375 22h-1.25q-0.469 0-0.984-0.328t-0.766-0.797l-0.938-2.875h-8.719l-0.938 2.875q-0.25 0.469-0.766 0.797t-0.984 0.328h-1.25q-0.469 0-0.625-0.328t0.094-0.797l5.813-17.719q0.25-0.469 0.766-0.797t0.984-0.328h2.531q0.469 0 0.984 0.328t0.766 0.797l5.813 17.719q0.25 0.469 0.094 0.797t-0.625 0.328zM23.063 4.75l-3.031 9.25h6.094zM12.094 20.875q-0.25 0.469-0.766 0.797t-0.984 0.328h-2.531q-0.469 0-0.984-0.328t-0.766-0.797l-5.813-17.719q-0.25-0.469-0.094-0.797t0.625-0.328h1.25q0.469 0 0.984 0.328t0.766 0.797l5.313 16.125 5.281-16.125q0.25-0.469 0.766-0.797t0.984-0.328h1.281q0.469 0 0.609 0.328t-0.109 0.797zM2.906 24.281q0.25-0.25 0.594-0.25t0.594 0.25v1.75h24v-1.75q0.25-0.25 0.594-0.25t0.594 0.25l2.563 2.063q0.25 0.281 0.25 0.672t-0.25 0.672l-2.563 2.031q-0.25 0.281-0.594 0.281t-0.594-0.281v-1.688h-24v1.688q-0.25 0.281-0.594 0.281t-0.594-0.281l-2.563-2.031q-0.25-0.281-0.25-0.672t0.25-0.672z" fill="#000000" />
</svg>
