<?xml version="1.0" encoding="utf-8"?>
<!-- Generated by IcoMoon.io -->
<!DOCTYPE svg PUBLIC "-//W3C//DTD SVG 1.1//EN" "http://www.w3.org/Graphics/SVG/1.1/DTD/svg11.dtd">
<svg version="1.1" xmlns="http://www.w3.org/2000/svg" xmlns:xlink="http://www.w3.org/1999/xlink" width="32" height="32" viewBox="0 0 32 32">
<g>
</g>
	<path d="M30.938 12l-2.188-2.156-8.875 8.906q-0.156 0.438-0.438 0.719-0.625 0.625-1.531 0.5-0.813 0.031-1.375-0.531-0.281-0.25-0.406-0.656l-1.156-1.156q-0.063 0.094-1.703 1.891t-1.797 1.953q-0.625 0.625-1.563 0.5-0.813 0.031-1.375-0.531-0.281-0.25-0.406-0.656l-0.156-0.156-3.813 3.813q-0.031 0.031-0.078 0.063t-0.078 0.063v3.438h26q0.813 0 1.406 0.594t0.594 1.422-0.594 1.406-1.406 0.578h-28q-0.844 0-1.422-0.578t-0.578-1.422v-28q0-0.813 0.578-1.406t1.406-0.594 1.422 0.594 0.594 1.406v17.344l2.125-2.125q0.125-0.375 0.406-0.656 0.563-0.563 1.375-0.531 0.906-0.094 1.531 0.5 0.281 0.281 0.438 0.75l0.094 0.094 3.156-3.156q0.125-0.375 0.406-0.656 0.563-0.563 1.375-0.531 0.938-0.094 1.531 0.5 0.281 0.281 0.438 0.75l1.094 1.094 8.156-8.156-2.125-2.125q-0.031-1.125 0.688-1.094h6.313q0.438 0.031 0.703 0.297t0.297 0.703v6.313q0.031 0.75-1.063 0.688z" fill="#000000" />
</svg>
