<?xml version="1.0" encoding="utf-8"?>
<!-- Generated by IcoMoon.io -->
<!DOCTYPE svg PUBLIC "-//W3C//DTD SVG 1.1//EN" "http://www.w3.org/Graphics/SVG/1.1/DTD/svg11.dtd">
<svg version="1.1" xmlns="http://www.w3.org/2000/svg" xmlns:xlink="http://www.w3.org/1999/xlink" width="32" height="32" viewBox="0 0 32 32">
<g>
</g>
	<path d="M31 28h-5v2h5q0.406 0 0.703 0.297t0.297 0.703-0.297 0.703-0.703 0.297h-6q-0.375 0-0.641-0.234t-0.328-0.578v-4.375q0.063-0.344 0.328-0.578t0.641-0.234h5v-2h-5q-0.406 0-0.703-0.297t-0.297-0.703 0.297-0.703 0.703-0.297h6q0.375 0 0.641 0.234t0.328 0.578v4.375q-0.063 0.344-0.328 0.578t-0.641 0.234zM19.453 23.453q-0.516 0.516-1.234 0.516t-1.25-0.5l-6.969-8.688-7 8.688q-0.5 0.5-1.234 0.5t-1.25-0.516-0.516-1.234 0.531-1.25l7.219-8.969-7.219-9q-0.531-0.5-0.531-1.234t0.516-1.25 1.25-0.516 1.234 0.531l7 8.656 6.969-8.656q0.531-0.531 1.25-0.531t1.234 0.516 0.516 1.25-0.5 1.234l-7.219 9 7.219 8.969q0.5 0.531 0.5 1.25t-0.516 1.234z" fill="#000000" />
</svg>
