<?xml version="1.0" encoding="utf-8"?>
<!-- Generated by IcoMoon.io -->
<!DOCTYPE svg PUBLIC "-//W3C//DTD SVG 1.1//EN" "http://www.w3.org/Graphics/SVG/1.1/DTD/svg11.dtd">
<svg version="1.1" xmlns="http://www.w3.org/2000/svg" xmlns:xlink="http://www.w3.org/1999/xlink" width="32" height="32" viewBox="0 0 32 32">
<g>
</g>
	<path d="M28 32v-14h-2v-2h2v-14h2v30h-2zM24 2h2v2h-2v-2zM24 18h-2v-2h2v2zM20 2h2v2h-2v-2zM20 18h-2v-2h2v2zM14 6v-2h2v2h-2zM12 2h2v2h-2v-2zM16 2h2v2h-2v-2zM12 18h-2v-2h2v2zM8 2h2v2h-2v-2zM8 18h-2v-2h2v2zM4 2h2v2h-2v-2zM4 18h-2v-2h2v2zM0 20v-2h2v2h-2zM0 14h2v2h-2v-2zM0 10h2v2h-2v-2zM0 6h2v2h-2v-2zM0 2h2v2h-2v-2zM2 24h-2v-2h2v2zM2 28h-2v-2h2v2zM2 32h-2v-2h2v2zM6 32h-2v-2h2v2zM10 32h-2v-2h2v2zM16 26h-2v-2h2v2zM16 22h-2v-2h2v2zM16 18h-2v-2h2v2zM14 8h2v2h-2v-2zM16 14h-2v-2h2v2zM16 28v2h-2v-2h2zM18 32h-2v-2h2v2zM14 32h-2v-2h2v2zM22 32h-2v-2h2v2zM26 32h-2v-2h2v2z" fill="#000000" />
</svg>
