<?xml version="1.0" encoding="utf-8"?>
<!-- Generated by IcoMoon.io -->
<!DOCTYPE svg PUBLIC "-//W3C//DTD SVG 1.1//EN" "http://www.w3.org/Graphics/SVG/1.1/DTD/svg11.dtd">
<svg version="1.1" xmlns="http://www.w3.org/2000/svg" xmlns:xlink="http://www.w3.org/1999/xlink" width="32" height="32" viewBox="0 0 32 32">
<g>
</g>
	<path d="M0 32v-30h30v30h-30zM28 18h-2v-2h2v-12h-12v2h-2v-2h-12v12h2v2h-2v12h12v-2h2v2h12v-12zM20 18h-2v-2h2v2zM24 18h-2v-2h2v2zM14 24h2v2h-2v-2zM14 20h2v2h-2v-2zM14 16h2v2h-2v-2zM14 12h2v2h-2v-2zM14 8h2v2h-2v-2zM10 16h2v2h-2v-2zM6 16h2v2h-2v-2z" fill="#000000" />
</svg>
