<?xml version="1.0" encoding="utf-8"?>
<!-- Generated by IcoMoon.io -->
<!DOCTYPE svg PUBLIC "-//W3C//DTD SVG 1.1//EN" "http://www.w3.org/Graphics/SVG/1.1/DTD/svg11.dtd">
<svg version="1.1" xmlns="http://www.w3.org/2000/svg" xmlns:xlink="http://www.w3.org/1999/xlink" width="32" height="32" viewBox="0 0 32 32">
<g>
</g>
	<path d="M28 32h-4q-0.813 0-1.406-0.594t-0.594-1.422 0.594-1.406 1.406-0.578h2.281q0.719 0 1.219-0.5t0.5-1.219v-2.281q0-0.813 0.578-1.406t1.406-0.594 1.422 0.594 0.594 1.406v4q0 1.656-1.172 2.828t-2.828 1.172zM29.984 10q-0.828 0-1.406-0.578t-0.578-1.422v-2.281q0-0.719-0.5-1.219t-1.219-0.5h-2.281q-0.813 0-1.406-0.578t-0.594-1.406 0.594-1.422 1.406-0.594h4q1.656 0 2.828 1.172t1.172 2.828v4q0 0.844-0.594 1.422t-1.422 0.578zM8 4h-2.281q-0.719 0-1.219 0.5t-0.5 1.219v2.281q0 0.844-0.594 1.422t-1.422 0.578-1.406-0.578-0.578-1.422v-4q0-1.656 1.172-2.828t2.828-1.172h4q0.813 0 1.406 0.594t0.594 1.422-0.578 1.406-1.422 0.578zM6 24v-16q0-0.813 0.578-1.406t1.422-0.594h16q0.813 0 1.406 0.594t0.594 1.406v16q0 0.844-0.594 1.422t-1.406 0.578h-16q-0.844 0-1.422-0.578t-0.578-1.422zM10 21q0 0.406 0.297 0.703t0.703 0.297h10q0.406 0 0.703-0.297t0.297-0.703v-10q0-0.406-0.297-0.703t-0.703-0.297h-10q-0.406 0-0.703 0.297t-0.297 0.703v10zM1.984 22q0.828 0 1.422 0.594t0.594 1.406v2.281q0 0.719 0.5 1.219t1.219 0.5h2.281q0.813 0 1.406 0.578t0.594 1.406-0.594 1.422-1.406 0.594h-4q-1.656 0-2.828-1.172t-1.172-2.828v-4q0-0.844 0.578-1.422t1.406-0.578z" fill="#000000" />
</svg>
