<?xml version="1.0" encoding="utf-8"?>
<!-- Generated by IcoMoon.io -->
<!DOCTYPE svg PUBLIC "-//W3C//DTD SVG 1.1//EN" "http://www.w3.org/Graphics/SVG/1.1/DTD/svg11.dtd">
<svg version="1.1" xmlns="http://www.w3.org/2000/svg" xmlns:xlink="http://www.w3.org/1999/xlink" width="32" height="32" viewBox="0 0 32 32">
<g>
</g>
	<path d="M30 32h-18q-0.844 0-1.422-0.594t-0.578-1.406v-4q0-0.844 0.578-1.422t1.422-0.578h18q0.844 0 1.422 0.578t0.578 1.422v4q0 0.813-0.578 1.406t-1.422 0.594zM28 26h-14q-0.813 0-1.406 0.578t-0.594 1.406 0.594 1.422 1.406 0.594h14q0.844 0 1.422-0.594t0.578-1.422-0.578-1.406-1.422-0.578zM26.813 21.688q-0.344 0.313-0.813 0.313t-0.813-0.313l-4.844-6.25q-0.344-0.313-0.344-0.719t0.344-0.719h3.406q-0.688-2.625-2.828-4.313t-4.922-1.688h-2q-0.813 0-1.406-0.594t-0.594-1.422 0.594-1.406 1.406-0.578h2q4.438 0 7.766 2.859t4.047 7.141h3.844q0.344 0.313 0.344 0.719t-0.344 0.719zM6 22h-4q-0.844 0-1.422-0.594t-0.578-1.406v-18q0-0.844 0.578-1.422t1.422-0.578h4q0.813 0 1.406 0.578t0.594 1.422v18q0 0.844-0.578 1.422t-1.422 0.578z" fill="#000000" />
</svg>
