<?xml version="1.0" encoding="utf-8"?>
<!-- Generated by IcoMoon.io -->
<!DOCTYPE svg PUBLIC "-//W3C//DTD SVG 1.1//EN" "http://www.w3.org/Graphics/SVG/1.1/DTD/svg11.dtd">
<svg version="1.1" xmlns="http://www.w3.org/2000/svg" xmlns:xlink="http://www.w3.org/1999/xlink" width="32" height="32" viewBox="0 0 32 32">
<g>
</g>
	<path d="M30 22h-4q-0.813 0-1.406-0.594t-0.594-1.406v-18q0-0.813 0.594-1.406t1.406-0.594h4q0.844 0 1.422 0.594t0.578 1.406v18q0 0.844-0.578 1.422t-1.422 0.578zM20 32h-18q-0.813 0-1.406-0.594t-0.594-1.406v-4q0-0.844 0.594-1.422t1.406-0.578h18q0.844 0 1.422 0.578t0.578 1.422v4q0 0.813-0.578 1.406t-1.422 0.594zM18 26h-14q-0.813 0-1.406 0.578t-0.594 1.422 0.594 1.422 1.406 0.578h14q0.844 0 1.422-0.578t0.578-1.422-0.578-1.422-1.422-0.578zM18 8h-2q-2.781 0-4.922 1.703t-2.828 4.297h3.406q0.344 0.313 0.344 0.719t-0.344 0.719l-4.844 6.25q-0.344 0.313-0.813 0.313t-0.813-0.313l-4.844-6.25q-0.344-0.313-0.344-0.719t0.344-0.719h3.844q0.719-4.281 4.047-7.141t7.766-2.859h2q0.844 0 1.422 0.578t0.578 1.422-0.578 1.422-1.422 0.578z" fill="#000000" />
</svg>
