<?xml version="1.0" encoding="utf-8"?>
<!-- Generated by IcoMoon.io -->
<!DOCTYPE svg PUBLIC "-//W3C//DTD SVG 1.1//EN" "http://www.w3.org/Graphics/SVG/1.1/DTD/svg11.dtd">
<svg version="1.1" xmlns="http://www.w3.org/2000/svg" xmlns:xlink="http://www.w3.org/1999/xlink" width="32" height="32" viewBox="0 0 32 32">
<g>
</g>
	<path d="M30 6h-28q-0.813 0-1.406-0.578t-0.594-1.406 0.578-1.422 1.422-0.594h10q0-0.813 0.578-1.406t1.422-0.594h4q0.844 0 1.422 0.594t0.578 1.406h10q0.813 0 1.406 0.594t0.594 1.422-0.594 1.406-1.406 0.578zM30 28q0 1.656-1.172 2.828t-2.828 1.172h-20q-1.656 0-2.828-1.172t-1.172-2.828v-20h28v20zM10 14q0-0.813-0.594-1.406t-1.422-0.594-1.406 0.594-0.578 1.406v12q0 0.844 0.578 1.422t1.406 0.578 1.422-0.578 0.594-1.422v-12zM18 14q0-0.813-0.594-1.406t-1.422-0.594-1.406 0.594-0.578 1.406v12q0 0.844 0.578 1.422t1.406 0.578 1.422-0.578 0.594-1.422v-12zM26 14q0-0.813-0.594-1.406t-1.422-0.594-1.406 0.594-0.578 1.406v12q0 0.844 0.578 1.422t1.406 0.578 1.422-0.578 0.594-1.422v-12z" fill="#000000" />
</svg>
