<?xml version="1.0" encoding="utf-8"?>
<!-- Generated by IcoMoon.io -->
<!DOCTYPE svg PUBLIC "-//W3C//DTD SVG 1.1//EN" "http://www.w3.org/Graphics/SVG/1.1/DTD/svg11.dtd">
<svg version="1.1" xmlns="http://www.w3.org/2000/svg" xmlns:xlink="http://www.w3.org/1999/xlink" width="32" height="32" viewBox="0 0 32 32">
<g>
</g>
	<path d="M28 32h-24q-1.656 0-2.828-1.172t-1.172-2.828v-24q0-1.656 1.172-2.813t2.828-1.156h18l-4 3.969h-12q-0.844 0-1.422 0.594t-0.578 1.406v20q0 0.844 0.594 1.422t1.406 0.578h20q0.844 0 1.422-0.578t0.578-1.422v-12l4-4v18q0 1.656-1.172 2.828t-2.828 1.172zM10 17.5l4.5 4.5-6.5 2zM16.5 20.5l-5-4.969 14.969-15q0.531-0.5 1.266-0.5t1.266 0.5l2.469 2.5q0.5 0.5 0.516 1.234t-0.516 1.266z" fill="#000000" />
</svg>
