<?xml version="1.0" encoding="utf-8"?>
<!-- Generated by IcoMoon.io -->
<!DOCTYPE svg PUBLIC "-//W3C//DTD SVG 1.1//EN" "http://www.w3.org/Graphics/SVG/1.1/DTD/svg11.dtd">
<svg version="1.1" xmlns="http://www.w3.org/2000/svg" xmlns:xlink="http://www.w3.org/1999/xlink" width="32" height="32" viewBox="0 0 32 32">
<g>
</g>
	<path d="M28 32h-14q-1.656 0-2.828-1.172t-1.172-2.828v-2q0-0.844 0.594-1.422t1.422-0.578 1.406 0.578 0.578 1.406 0.594 1.422 1.406 0.594h8q0.844 0 1.422-0.594t0.578-1.406v-20q0-0.844-0.578-1.422t-1.422-0.578h-8q-0.813 0-1.406 0.578t-0.594 1.406-0.578 1.422-1.406 0.594-1.422-0.594-0.594-1.406v-2q0-1.656 1.172-2.828t2.828-1.172h14q1.656 0 2.828 1.172t1.172 2.828v24q0 1.656-1.172 2.828t-2.828 1.172zM16 8.875q0-0.375 0.422-0.625t1-0.234 0.922 0.391l5.094 6.219q0.531 0.594 0.531 1.375t-0.531 1.344l-5.094 6.25q-0.344 0.375-0.922 0.391t-1-0.234-0.422-0.594v-3.156h-14q-0.844 0-1.422-0.578t-0.578-1.422v-4q0-0.844 0.578-1.422t1.422-0.578h14v-3.125z" fill="#000000" />
</svg>
