<?xml version="1.0" encoding="utf-8"?>
<!-- Generated by IcoMoon.io -->
<!DOCTYPE svg PUBLIC "-//W3C//DTD SVG 1.1//EN" "http://www.w3.org/Graphics/SVG/1.1/DTD/svg11.dtd">
<svg version="1.1" xmlns="http://www.w3.org/2000/svg" xmlns:xlink="http://www.w3.org/1999/xlink" width="32" height="32" viewBox="0 0 32 32">
<g>
</g>
	<path d="M28 32h-24q-1.656 0-2.828-1.172t-1.172-2.828v-24q0-1.656 1.172-2.828t2.828-1.172h24q1.656 0 2.828 1.172t1.172 2.828v24q0 1.656-1.172 2.828t-2.828 1.172zM13.984 2q-0.828 0-1.406 0.578t-0.578 1.406 0.578 1.422 1.422 0.594 1.422-0.594 0.578-1.422-0.594-1.406-1.422-0.578zM19.984 2q-0.828 0-1.406 0.578t-0.578 1.406 0.578 1.422 1.406 0.594 1.422-0.594 0.594-1.422-0.594-1.406-1.422-0.578zM26 2q-0.844 0-1.422 0.578t-0.578 1.406 0.578 1.422 1.422 0.594 1.422-0.594 0.578-1.422-0.578-1.406-1.422-0.578zM28 10q0-0.844-0.594-1.422t-1.406-0.578h-20q-0.844 0-1.422 0.578t-0.578 1.422v16q0 0.844 0.578 1.422t1.422 0.578h20q0.813 0 1.406-0.578t0.594-1.422v-16zM15.969 23.656q-0.063 0.344-0.281 0.563l-1.406 1.406q-0.313 0.313-0.781 0.281-0.469 0.031-0.781-0.281l-1.406-1.406q-0.156-0.156-0.25-0.344l-4.781-4.75q-0.281-0.281-0.281-0.703t0.281-0.703l1.438-1.438q0.281-0.281 0.703-0.281t0.703 0.281l4.281 4.219 9.438-10.219q0.313-0.281 0.734-0.281t0.703 0.281l1.438 1.438q0.281 0.281 0.281 0.703t-0.281 0.703z" fill="#000000" />
</svg>
