<?xml version="1.0" encoding="utf-8"?>
<!-- Generated by IcoMoon.io -->
<!DOCTYPE svg PUBLIC "-//W3C//DTD SVG 1.1//EN" "http://www.w3.org/Graphics/SVG/1.1/DTD/svg11.dtd">
<svg version="1.1" xmlns="http://www.w3.org/2000/svg" xmlns:xlink="http://www.w3.org/1999/xlink" width="32" height="32" viewBox="0 0 32 32">
<g>
</g>
	<path d="M28 32h-14q-1.656 0-2.828-1.172t-1.172-2.828v-2q0-0.844 0.578-1.422t1.406-0.578 1.422 0.578 0.594 1.406 0.578 1.422 1.422 0.594h8q0.813 0 1.406-0.594t0.594-1.406v-20.031q0-0.813-0.594-1.406t-1.406-0.594h-8q-0.844 0-1.422 0.594t-0.578 1.422-0.594 1.422-1.422 0.594-1.406-0.594-0.578-1.438v-2q0-1.656 1.172-2.828t2.828-1.172h14q1.656 0 2.828 1.172t1.172 2.828v24.031q0 1.656-1.172 2.828t-2.828 1.172zM22 11.969q0.813 0 1.406 0.594t0.594 1.406v4.031q0 0.813-0.594 1.406t-1.406 0.594h-14v3.156q0 0.344-0.422 0.594t-1 0.219-0.922-0.375l-5.094-6.25q-0.563-0.563-0.563-1.359t0.563-1.359l5.094-6.25q0.344-0.344 0.922-0.359t1 0.234 0.422 0.625v3.094h14z" fill="#000000" />
</svg>
