<?xml version="1.0" encoding="utf-8"?>
<!-- Generated by IcoMoon.io -->
<!DOCTYPE svg PUBLIC "-//W3C//DTD SVG 1.1//EN" "http://www.w3.org/Graphics/SVG/1.1/DTD/svg11.dtd">
<svg version="1.1" xmlns="http://www.w3.org/2000/svg" xmlns:xlink="http://www.w3.org/1999/xlink" width="32" height="32" viewBox="0 0 32 32">
<g>
</g>
	<path d="M28 32h-24q-1.656 0-2.828-1.172t-1.172-2.828v-24q0-1.656 1.172-2.828t2.828-1.172h14v4h-12q-0.844 0-1.422 0.594t-0.578 1.406v20q0 0.844 0.578 1.422t1.422 0.578h20q0.844 0 1.422-0.578t0.578-1.422v-9.438l4-3.344v14.781q0 1.656-1.172 2.828t-2.828 1.172zM21.75 17.719q-0.406 0.406-1.078 0.25t-0.672-0.594v-5.375q-7 0-12 10v-2q0-3.625 0.938-6.375t2.594-4.375 3.781-2.438 4.688-0.813v-5.313q0-0.438 0.672-0.609t1.078 0.234l9.813 7.688q0.406 0.406 0.406 1t-0.406 1.031z" fill="#000000" />
</svg>
