<?xml version="1.0" encoding="utf-8"?>
<!-- Generated by IcoMoon.io -->
<!DOCTYPE svg PUBLIC "-//W3C//DTD SVG 1.1//EN" "http://www.w3.org/Graphics/SVG/1.1/DTD/svg11.dtd">
<svg version="1.1" xmlns="http://www.w3.org/2000/svg" xmlns:xlink="http://www.w3.org/1999/xlink" width="32" height="32" viewBox="0 0 32 32">
<g>
</g>
	<path d="M16 32q-4.344 0-8.031-2.141t-5.828-5.828-2.141-8.031 2.141-8.031 5.828-5.828 8.031-2.141 8.031 2.141 5.828 5.828 2.141 8.031-2.141 8.031-5.828 5.828-8.031 2.141zM16 4q-3.25 0-6.016 1.609t-4.375 4.375-1.609 6.016 1.609 6.016 4.375 4.375 6.016 1.609 6.016-1.609 4.375-4.375 1.609-6.016-1.609-6.016-4.375-4.375-6.016-1.609zM15.938 20.594q-0.156 0.563-0.469 0.875-0.625 0.625-1.531 0.5-0.875 0.063-1.438-0.5-0.313-0.313-0.438-0.844l-3.563-3.563q-0.531-0.531-0.531-1.281t0.531-1.281 1.281-0.531 1.281 0.531l2.906 2.906 6.938-6.906q0.531-0.531 1.281-0.531t1.281 0.531 0.531 1.281-0.531 1.281z" fill="#000000" />
</svg>
