<?xml version="1.0" encoding="utf-8"?>
<!-- Generated by IcoMoon.io -->
<!DOCTYPE svg PUBLIC "-//W3C//DTD SVG 1.1//EN" "http://www.w3.org/Graphics/SVG/1.1/DTD/svg11.dtd">
<svg version="1.1" xmlns="http://www.w3.org/2000/svg" xmlns:xlink="http://www.w3.org/1999/xlink" width="32" height="32" viewBox="0 0 32 32">
<g>
</g>
	<path d="M31 32h-16q-0.406 0-0.703-0.297t-0.297-0.703v-16q0-0.406 0.297-0.703t0.703-0.297h16q0.406 0 0.703 0.297t0.297 0.703v16q0 0.406-0.297 0.703t-0.703 0.297zM31 12h-2q-0.406 0-0.703-0.297t-0.297-0.703v-2q0-0.406 0.297-0.703t0.703-0.297h2q0.406 0 0.703 0.297t0.297 0.703v2q0 0.406-0.297 0.703t-0.703 0.297zM31 6h-2q-0.406 0-0.703-0.297t-0.297-0.703v-1h-1q-0.406 0-0.703-0.297t-0.297-0.703v-2q0-0.406 0.297-0.703t0.703-0.297h4q0.406 0 0.703 0.297t0.297 0.703v4q0 0.406-0.297 0.703t-0.703 0.297zM23 4h-2q-0.406 0-0.703-0.297t-0.297-0.703v-2q0-0.406 0.297-0.703t0.703-0.297h2q0.406 0 0.703 0.297t0.297 0.703v2q0 0.406-0.297 0.703t-0.703 0.297zM17 4h-2q-0.406 0-0.703-0.297t-0.297-0.703v-2q0-0.406 0.297-0.703t0.703-0.297h2q0.406 0 0.703 0.297t0.297 0.703v2q0 0.406-0.297 0.703t-0.703 0.297zM11 32h-2q-0.406 0-0.703-0.297t-0.297-0.703v-2q0-0.406 0.297-0.703t0.703-0.297h2q0.406 0 0.703 0.297t0.297 0.703v2q0 0.406-0.297 0.703t-0.703 0.297zM11 4h-2q-0.406 0-0.703-0.297t-0.297-0.703v-2q0-0.406 0.297-0.703t0.703-0.297h2q0.406 0 0.703 0.297t0.297 0.703v2q0 0.406-0.297 0.703t-0.703 0.297zM5 32h-4q-0.406 0-0.703-0.297t-0.297-0.703v-4q0-0.406 0.297-0.703t0.703-0.297h2q0.406 0 0.703 0.297t0.297 0.703v1h1q0.406 0 0.703 0.297t0.297 0.703v2q0 0.406-0.297 0.703t-0.703 0.297zM5 4h-1v1q0 0.406-0.297 0.703t-0.703 0.297h-2q-0.406 0-0.703-0.297t-0.297-0.703v-4q0-0.406 0.297-0.703t0.703-0.297h4q0.406 0 0.703 0.297t0.297 0.703v2q0 0.406-0.297 0.703t-0.703 0.297zM1 8h2q0.406 0 0.703 0.297t0.297 0.703v2q0 0.406-0.297 0.703t-0.703 0.297h-2q-0.406 0-0.703-0.297t-0.297-0.703v-2q0-0.406 0.297-0.703t0.703-0.297zM1 14h2q0.406 0 0.703 0.297t0.297 0.703v2q0 0.406-0.297 0.703t-0.703 0.297h-2q-0.406 0-0.703-0.297t-0.297-0.703v-2q0-0.406 0.297-0.703t0.703-0.297zM1 20h2q0.406 0 0.703 0.297t0.297 0.703v2q0 0.406-0.297 0.703t-0.703 0.297h-2q-0.406 0-0.703-0.297t-0.297-0.703v-2q0-0.406 0.297-0.703t0.703-0.297z" fill="#000000" />
</svg>
