<?xml version="1.0" encoding="utf-8"?>
<!-- Generated by IcoMoon.io -->
<!DOCTYPE svg PUBLIC "-//W3C//DTD SVG 1.1//EN" "http://www.w3.org/Graphics/SVG/1.1/DTD/svg11.dtd">
<svg version="1.1" xmlns="http://www.w3.org/2000/svg" xmlns:xlink="http://www.w3.org/1999/xlink" width="32" height="32" viewBox="0 0 32 32">
<g>
</g>
	<path d="M28 32h-24q-1.656 0-2.828-1.172t-1.172-2.828v-24q0-1.656 1.172-2.828t2.828-1.172h24q1.656 0 2.828 1.172t1.172 2.828v24q0 1.656-1.172 2.828t-2.828 1.172zM14 2q-0.844 0-1.422 0.578t-0.578 1.406 0.578 1.422 1.422 0.594 1.422-0.594 0.578-1.422-0.578-1.406-1.422-0.578zM20 2q-0.844 0-1.422 0.578t-0.578 1.406 0.578 1.422 1.422 0.594 1.422-0.594 0.578-1.422-0.578-1.406-1.422-0.578zM26.016 2q-0.828 0-1.422 0.578t-0.594 1.406 0.594 1.422 1.422 0.594 1.406-0.594 0.578-1.422-0.578-1.406-1.406-0.578zM28 10q0-0.844-0.578-1.422t-1.422-0.578h-20q-0.844 0-1.422 0.578t-0.578 1.422v16q0 0.844 0.578 1.422t1.422 0.578h20q0.844 0 1.422-0.578t0.578-1.422v-16zM18.844 17.969l4.844 4.813q0.313 0.313 0.313 0.719t-0.313 0.719l-1.406 1.406q-0.313 0.281-0.719 0.281t-0.719-0.281l-4.844-4.813-4.844 4.813q-0.313 0.281-0.719 0.281t-0.719-0.281l-1.406-1.406q-0.313-0.313-0.313-0.719t0.313-0.719l4.844-4.813-4.875-4.844q-0.281-0.281-0.281-0.703t0.281-0.703l1.438-1.438q0.281-0.281 0.703-0.281t0.734 0.281l4.844 4.844 4.844-4.844q0.313-0.281 0.734-0.281t0.703 0.281l1.438 1.438q0.281 0.281 0.281 0.703t-0.281 0.703z" fill="#000000" />
</svg>
