<?xml version="1.0" encoding="utf-8"?>
<!-- Generated by IcoMoon.io -->
<!DOCTYPE svg PUBLIC "-//W3C//DTD SVG 1.1//EN" "http://www.w3.org/Graphics/SVG/1.1/DTD/svg11.dtd">
<svg version="1.1" xmlns="http://www.w3.org/2000/svg" xmlns:xlink="http://www.w3.org/1999/xlink" width="32" height="32" viewBox="0 0 32 32">
<g>
</g>
	<path d="M28 28h-2v2q0 0.844-0.578 1.422t-1.422 0.578h-4q-0.813 0-1.406-0.578t-0.594-1.422v-2h-14q-1.656 0-2.828-1.172t-1.172-2.828v-16q0-0.813 0.594-1.406t1.406-0.594h15l1.438-2.625q0.281-0.5 0.938-0.938t1.313-0.438h7.5q0.75 0 1.406 0.391t0.875 0.984q1.531 2.094 1.531 2.625v18q0 1.656-1.172 2.828t-2.828 1.172zM28 20h-4v-4q0-0.813-0.594-1.406t-1.422-0.594-1.406 0.594-0.578 1.406v4h-4q-0.844 0-1.422 0.594t-0.578 1.422 0.578 1.406 1.422 0.578h4v4q0 0.844 0.578 1.422t1.406 0.578 1.422-0.578 0.594-1.422v-4h4q0.813 0 1.406-0.578t0.594-1.406-0.594-1.422-1.406-0.594zM1.438 1.375q0.219-0.594 0.875-0.984t1.375-0.391h7.5q0.75 0 1.406 0.391t0.906 0.984l1.5 2.625h-15z" fill="#000000" />
</svg>
