<?xml version="1.0" encoding="utf-8"?>
<!-- Generated by IcoMoon.io -->
<!DOCTYPE svg PUBLIC "-//W3C//DTD SVG 1.1//EN" "http://www.w3.org/Graphics/SVG/1.1/DTD/svg11.dtd">
<svg version="1.1" xmlns="http://www.w3.org/2000/svg" xmlns:xlink="http://www.w3.org/1999/xlink" width="32" height="32" viewBox="0 0 32 32">
<g>
</g>
	<path d="M30 32h-16q-0.844 0-1.422-0.578t-0.578-1.422v-6h7q0.969 0 1.734-0.563t1.078-1.438h5.188q0.406 0 0.703-0.297t0.297-0.703-0.297-0.703-0.703-0.297h-5v-4h5q0.406 0 0.703-0.297t0.297-0.703-0.297-0.703-0.703-0.297h-5v-4h8q0.813 0 1.406 0.594t0.594 1.406v18q0 0.813-0.578 1.406t-1.422 0.594zM27 26h-10q-0.406 0-0.703 0.297t-0.297 0.703 0.297 0.703 0.703 0.297h10q0.406 0 0.703-0.297t0.297-0.703-0.297-0.703-0.703-0.297zM18 22h-16q-0.844 0-1.422-0.578t-0.578-1.422v-18q0-0.813 0.578-1.406t1.422-0.594h16q0.844 0 1.422 0.594t0.578 1.406v18q0 0.844-0.594 1.422t-1.406 0.578zM15 4h-10q-0.406 0-0.703 0.297t-0.297 0.703 0.297 0.703 0.703 0.297h10q0.406 0 0.703-0.297t0.297-0.703-0.297-0.703-0.703-0.297zM15 10h-10q-0.406 0-0.703 0.297t-0.297 0.703 0.297 0.703 0.703 0.297h10q0.406 0 0.703-0.297t0.297-0.703-0.297-0.703-0.703-0.297zM15 16h-10q-0.406 0-0.703 0.297t-0.297 0.703 0.297 0.703 0.703 0.297h10q0.406 0 0.703-0.297t0.297-0.703-0.297-0.703-0.703-0.297z" fill="#000000" />
</svg>
