<?xml version="1.0" encoding="utf-8"?>
<!-- Generated by IcoMoon.io -->
<!DOCTYPE svg PUBLIC "-//W3C//DTD SVG 1.1//EN" "http://www.w3.org/Graphics/SVG/1.1/DTD/svg11.dtd">
<svg version="1.1" xmlns="http://www.w3.org/2000/svg" xmlns:xlink="http://www.w3.org/1999/xlink" width="32" height="32" viewBox="0 0 32 32">
<g>
</g>
	<path d="M27.969 32h-23.969q-0.844 0-1.422-0.578t-0.578-1.422v-27.969q0-0.813 0.594-1.406t1.406-0.594h14v11q0 0.406 0.281 0.703t0.719 0.297h10.969v17.938q0 0.844-0.578 1.422t-1.422 0.578v0.031zM20 20h-4v-4q0-0.813-0.594-1.391t-1.422-0.578-1.406 0.578-0.578 1.391v4h-4q-0.844 0-1.422 0.594t-0.578 1.406 0.578 1.391 1.422 0.578h4v4q0 0.844 0.578 1.422t1.406 0.578 1.422-0.578 0.594-1.422v-4h4q0.813 0 1.406-0.578t0.594-1.391-0.594-1.406-1.406-0.594zM20 0q0.656 0 1.375 0.594l8 8.031q0.594 0.594 0.594 1.438h-9.969v-10.063z" fill="#000000" />
</svg>
