<?xml version="1.0" encoding="utf-8"?>
<!-- Generated by IcoMoon.io -->
<!DOCTYPE svg PUBLIC "-//W3C//DTD SVG 1.1//EN" "http://www.w3.org/Graphics/SVG/1.1/DTD/svg11.dtd">
<svg version="1.1" xmlns="http://www.w3.org/2000/svg" xmlns:xlink="http://www.w3.org/1999/xlink" width="32" height="32" viewBox="0 0 32 32">
<g>
</g>
	<path d="M30.875 26.781q0.281 1.094-0.469 1.875l-2.813 2.781q-0.781 0.781-1.906 0.5-1.125 0.281-1.906-0.5l-2.781-2.781-2.813 2.781q-0.781 0.781-1.906 0.5-1.125 0.281-1.906-0.5l-2.813-2.781q-0.219-0.25-0.375-0.594h-7.188q-1.656 0-2.828-1.172t-1.172-2.828v-16q0-0.844 0.594-1.422t1.406-0.578h15l1.438-2.656q0.281-0.5 0.938-0.922t1.313-0.422h7.5q0.75 0 1.406 0.391t0.875 0.953q1.531 2.125 1.531 2.656v18q0 1.531-1.125 2.719zM27.438 19.313q0.563-0.563 0.563-1.359t-0.563-1.359-1.359-0.563-1.359 0.563l-3.719 3.719-3.75-3.719q-0.563-0.563-1.359-0.563t-1.359 0.563-0.563 1.359 0.563 1.359l3.719 3.719-3.719 3.719q-0.563 0.563-0.563 1.359t0.563 1.359 1.359 0.563 1.359-0.563l3.75-3.719 3.719 3.719q0.563 0.563 1.359 0.563t1.359-0.563 0.563-1.359-0.563-1.359l-3.719-3.719zM1.438 1.406q0.219-0.563 0.875-0.953t1.375-0.391h7.5q0.75 0 1.406 0.391t0.906 0.953l1.5 2.656h-15z" fill="#000000" />
</svg>
