<?xml version="1.0" encoding="utf-8"?>
<!-- Generated by IcoMoon.io -->
<!DOCTYPE svg PUBLIC "-//W3C//DTD SVG 1.1//EN" "http://www.w3.org/Graphics/SVG/1.1/DTD/svg11.dtd">
<svg version="1.1" xmlns="http://www.w3.org/2000/svg" xmlns:xlink="http://www.w3.org/1999/xlink" width="32" height="32" viewBox="0 0 32 32">
<g>
</g>
	<path d="M28 32h-22q-1.656 0-2.828-1.172t-1.172-2.828v-22q0-1.656 1.172-2.828t2.828-1.172v4q0 0.844 0.594 1.422t1.406 0.578h2q0.844 0 1.422-0.578t0.578-1.422v-4h10v4q0 0.844 0.594 1.422t1.406 0.578h2q0.844 0 1.422-0.578t0.578-1.422v-4q1.656 0 2.828 1.172t1.172 2.828v22q0 1.656-1.172 2.828t-2.828 1.172zM27 12h-20q-0.406 0-0.703 0.297t-0.297 0.703 0.297 0.703 0.703 0.297h20q0.406 0 0.703-0.297t0.297-0.703-0.297-0.703-0.703-0.297zM27 18h-20q-0.406 0-0.703 0.297t-0.297 0.703 0.297 0.703 0.703 0.297h20q0.406 0 0.703-0.297t0.297-0.703-0.297-0.703-0.703-0.297zM27 24h-20q-0.406 0-0.703 0.297t-0.297 0.703 0.297 0.703 0.703 0.297h20q0.406 0 0.703-0.297t0.297-0.703-0.297-0.703-0.703-0.297zM25 6q-0.406 0-0.703-0.297t-0.297-0.703v-4q0-0.406 0.297-0.703t0.703-0.297 0.703 0.297 0.297 0.703v4q0 0.406-0.297 0.703t-0.703 0.297zM9 6q-0.406 0-0.703-0.297t-0.297-0.703v-4q0-0.406 0.297-0.703t0.703-0.297 0.703 0.297 0.297 0.703v4q0 0.406-0.297 0.703t-0.703 0.297z" fill="#000000" />
</svg>
