<?xml version="1.0" encoding="utf-8"?>
<!-- Generated by IcoMoon.io -->
<!DOCTYPE svg PUBLIC "-//W3C//DTD SVG 1.1//EN" "http://www.w3.org/Graphics/SVG/1.1/DTD/svg11.dtd">
<svg version="1.1" xmlns="http://www.w3.org/2000/svg" xmlns:xlink="http://www.w3.org/1999/xlink" width="32" height="32" viewBox="0 0 32 32">
<g>
</g>
	<path d="M28 32h-24q-0.813 0-1.406-0.594t-0.594-1.406v-26q0-0.844 0.578-1.438t1.422-0.594h4v4q0 0.844 0.594 1.422t1.406 0.578h12q0.844 0 1.422-0.578t0.578-1.422v-4h4q0.844 0 1.422 0.594t0.578 1.438v26q0 0.813-0.578 1.406t-1.422 0.594zM20 6h-8q-0.813 0-1.406-0.594t-0.594-1.406q0-0.844 0.594-1.422t1.406-0.578q0-0.844 0.594-1.422t1.406-0.578h4q0.844 0 1.422 0.578t0.578 1.422q0.844 0 1.422 0.578t0.578 1.422q0 0.813-0.578 1.406t-1.422 0.594z" fill="#000000" />
</svg>
