<?xml version="1.0" encoding="utf-8"?>
<!-- Generated by IcoMoon.io -->
<!DOCTYPE svg PUBLIC "-//W3C//DTD SVG 1.1//EN" "http://www.w3.org/Graphics/SVG/1.1/DTD/svg11.dtd">
<svg version="1.1" xmlns="http://www.w3.org/2000/svg" xmlns:xlink="http://www.w3.org/1999/xlink" width="32" height="32" viewBox="0 0 32 32">
<g>
</g>
	<path d="M28 30h-24q-1.656 0-2.828-1.172t-1.172-2.828v-16q0-0.813 0.594-1.406t1.406-0.594h15l1.438-2.625q0.219-0.594 0.875-0.984t1.375-0.391h7.5q0.75 0 1.406 0.391t0.906 0.984l1.5 2.625v18q0 1.656-1.172 2.828t-2.828 1.172zM18.75 13.906q-0.031 0-0.344-0.219t-0.5-0.344-0.563-0.344-0.656-0.375-0.609-0.313-0.594-0.234-0.484-0.078q-0.406 0-0.703 0.313t-0.297 0.75v7.344q-0.938-0.406-2-0.406-1.656 0-2.828 0.875t-1.172 2.125 1.172 2.125 2.828 0.875 2.828-0.875 1.172-2.125v0-5q0-0.656 0.281-1.328t0.719-0.672q0.625 0 1.125 1t0.688 2l0.188 1q-0.719 0-0.719 1.063 0 0.344 0.281 0.641t0.656 0.297q0.781 0 1.344-0.234t0.844-0.531 0.422-0.906 0.156-0.984 0.016-1.156q0-0.719-0.328-1.422t-0.938-1.266-1-0.875-0.984-0.719zM1.438 3.375q0.219-0.594 0.875-0.984t1.375-0.391h7.5q0.75 0 1.406 0.391t0.906 0.984l1.5 2.625h-15z" fill="#000000" />
</svg>
