<?xml version="1.0" encoding="utf-8"?>
<!-- Generated by IcoMoon.io -->
<!DOCTYPE svg PUBLIC "-//W3C//DTD SVG 1.1//EN" "http://www.w3.org/Graphics/SVG/1.1/DTD/svg11.dtd">
<svg version="1.1" xmlns="http://www.w3.org/2000/svg" xmlns:xlink="http://www.w3.org/1999/xlink" width="32" height="32" viewBox="0 0 32 32">
<g>
</g>
	<path d="M32 8v18q0 1.656-1.172 2.828t-2.828 1.172h-24q-1.656 0-2.828-1.172t-1.172-2.828v-16q0-0.813 0.594-1.406t1.406-0.594h15l1.438-2.625q0.219-0.594 0.875-0.984t1.375-0.391h7.5q0.75 0 1.406 0.391t0.906 0.984zM21.844 14.656q0.219-0.375 0.109-0.797t-0.516-0.641l-1.938-1.063q-0.406-0.219-0.844-0.109t-0.688 0.484l-0.938 1.563q-0.531-0.094-1.031-0.094t-1.031 0.094l-0.938-1.563q-0.25-0.375-0.688-0.484t-0.844 0.109l-1.938 1.063q-0.406 0.219-0.516 0.641t0.109 0.797l1.063 1.75q-0.531 0.719-0.844 1.594h-1.375q-0.406 0-0.703 0.281t-0.297 0.719v2q0 0.438 0.297 0.734t0.703 0.297h1.375q0.313 0.844 0.844 1.563l-1.063 1.75q-0.219 0.406-0.109 0.828t0.516 0.641l1.938 1.031q0.406 0.219 0.844 0.109t0.688-0.484l0.938-1.563q0.531 0.094 1.031 0.094t1.031-0.094l0.938 1.563q0.25 0.375 0.688 0.484t0.844-0.109l1.938-1.031q0.406-0.219 0.516-0.641t-0.109-0.828l-1.063-1.75q0.531-0.719 0.844-1.563h1.375q0.406 0 0.703-0.297t0.297-0.734v-2q0-0.438-0.297-0.719t-0.703-0.281h-1.375q-0.313-0.875-0.844-1.594zM16 24q-1.656 0-2.828-1.172t-1.172-2.828 1.172-2.828 2.828-1.172 2.828 1.172 1.172 2.828-1.172 2.828-2.828 1.172zM1.438 3.375q0.219-0.594 0.875-0.984t1.375-0.391h7.5q0.75 0 1.406 0.391t0.906 0.984l1.5 2.625h-15z" fill="#000000" />
</svg>
