<?xml version="1.0" encoding="utf-8"?>
<!-- Generated by IcoMoon.io -->
<!DOCTYPE svg PUBLIC "-//W3C//DTD SVG 1.1//EN" "http://www.w3.org/Graphics/SVG/1.1/DTD/svg11.dtd">
<svg version="1.1" xmlns="http://www.w3.org/2000/svg" xmlns:xlink="http://www.w3.org/1999/xlink" width="32" height="32" viewBox="0 0 32 32">
<g>
</g>
	<path d="M28 30h-24q-1.656 0-2.828-1.172t-1.172-2.828v-16q0-0.813 0.594-1.406t1.406-0.594h15l1.438-2.625q0.219-0.594 0.875-0.984t1.375-0.391h7.5q0.75 0 1.406 0.391t0.906 0.984l1.5 2.625v18q0 1.656-1.172 2.828t-2.828 1.172zM26 12h-20v14h20v-14zM12 24v-10l10 5zM1.438 3.375q0.219-0.594 0.875-0.984t1.375-0.391h7.5q0.75 0 1.406 0.391t0.906 0.984l1.5 2.625h-15z" fill="#000000" />
</svg>
