<?xml version="1.0" encoding="utf-8"?>
<!-- Generated by IcoMoon.io -->
<!DOCTYPE svg PUBLIC "-//W3C//DTD SVG 1.1//EN" "http://www.w3.org/Graphics/SVG/1.1/DTD/svg11.dtd">
<svg version="1.1" xmlns="http://www.w3.org/2000/svg" xmlns:xlink="http://www.w3.org/1999/xlink" width="32" height="32" viewBox="0 0 32 32">
<g>
</g>
	<path d="M28 32h-20q-1.656 0-2.828-1.172t-1.172-2.828v-16q-1.656 0-2.828-1.172t-1.172-2.828v-4q0-1.656 1.172-2.828t2.828-1.172h24q1.656 0 2.828 1.172t1.172 2.828v24q0 1.656-1.172 2.828t-2.828 1.172zM27.625 3h-9.25q-0.25 0-0.344 0.453t0.156 0.734l4.219 5.531q0.25 0.281 0.594 0.281t0.594-0.281l4.219-5.531q0.25-0.281 0.156-0.734t-0.344-0.453zM28 12h-20v4h20v-4zM28 18h-20v4h20v-4zM28 24h-20v3q0 0.406 0.297 0.703t0.703 0.297h18q0.406 0 0.703-0.297t0.297-0.703v-3z" fill="#000000" />
</svg>
