<?xml version="1.0" encoding="utf-8"?>
<!-- Generated by IcoMoon.io -->
<!DOCTYPE svg PUBLIC "-//W3C//DTD SVG 1.1//EN" "http://www.w3.org/Graphics/SVG/1.1/DTD/svg11.dtd">
<svg version="1.1" xmlns="http://www.w3.org/2000/svg" xmlns:xlink="http://www.w3.org/1999/xlink" width="32" height="32" viewBox="0 0 32 32">
<g>
</g>
	<path d="M16 32q-4.344 0-8.031-2.141t-5.828-5.828-2.141-8.031 2.141-8.031 5.828-5.828 8.031-2.141 8.031 2.141 5.828 5.828 2.141 8.031-2.141 8.031-5.828 5.828-8.031 2.141zM23.406 16.594q-0.594-0.594-1.438-0.594t-1.438 0.594l-2.563 2.531v-11.125q0-0.844-0.578-1.422t-1.406-0.578-1.406 0.578-0.578 1.422v11.125l-2.563-2.531q-0.594-0.594-1.438-0.594t-1.438 0.594-0.594 1.438 0.594 1.438l5.938 5.938q0.25 0.25 0.719 0.406 0.031 0 0.094 0.031 0.063 0 0.078 0.016t0.063 0.031l0.047 0.016q0.094 0.031 0.188 0.031h0.094q1 0.125 1.688-0.531l5.938-5.938q0.594-0.594 0.594-1.438t-0.594-1.438z" fill="#000000" />
</svg>
