<?xml version="1.0" encoding="utf-8"?>
<!-- Generated by IcoMoon.io -->
<!DOCTYPE svg PUBLIC "-//W3C//DTD SVG 1.1//EN" "http://www.w3.org/Graphics/SVG/1.1/DTD/svg11.dtd">
<svg version="1.1" xmlns="http://www.w3.org/2000/svg" xmlns:xlink="http://www.w3.org/1999/xlink" width="32" height="32" viewBox="0 0 32 32">
<g>
</g>
	<path d="M31 14h-30q-0.406 0-0.703-0.297t-0.297-0.703 0.297-0.703 0.703-0.297h13v-5h-3.25l-0.375-0.188t-0.25-0.203-0.125-0.281 0.125-0.328q0.375-0.438 2.281-2.781t2.156-2.594q0.625-0.625 1.453-0.625t1.422 0.594q0.156 0.156 2.219 2.703t2.219 2.703q0.219 0.281 0.078 0.516t-0.422 0.359l-0.281 0.125h-3.25v5h13q0.406 0 0.703 0.297t0.297 0.703-0.297 0.703-0.703 0.297zM1 18h30q0.406 0 0.703 0.297t0.297 0.703-0.297 0.703-0.703 0.297h-13v5h3.25q0.031 0.031 0.109 0.047t0.266 0.125 0.25 0.219 0.125 0.281-0.125 0.328q-0.156 0.156-2.219 2.703t-2.219 2.703q-0.594 0.594-1.422 0.594t-1.453-0.625q-0.25-0.25-2.156-2.594t-2.281-2.781q-0.188-0.281-0.063-0.516t0.406-0.359l3.531-0.125v-5h-13q-0.406 0-0.703-0.297t-0.297-0.703 0.297-0.703 0.703-0.297z" fill="#000000" />
</svg>
