<?xml version="1.0" encoding="utf-8"?>
<!-- Generated by IcoMoon.io -->
<!DOCTYPE svg PUBLIC "-//W3C//DTD SVG 1.1//EN" "http://www.w3.org/Graphics/SVG/1.1/DTD/svg11.dtd">
<svg version="1.1" xmlns="http://www.w3.org/2000/svg" xmlns:xlink="http://www.w3.org/1999/xlink" width="32" height="32" viewBox="0 0 32 32">
<g>
</g>
	<path d="M31.406 17.438q-0.156 0.156-2.703 2.219t-2.703 2.219q-0.281 0.219-0.516 0.078t-0.359-0.422l-0.125-0.281v-3.25h-5v13q0 0.406-0.297 0.703t-0.703 0.297-0.703-0.297-0.297-0.703v-30q0-0.406 0.297-0.703t0.703-0.297 0.703 0.297 0.297 0.703v13h5v-3.25l0.188-0.375t0.203-0.25 0.281-0.125 0.328 0.125q0.375 0.313 2.75 2.25t2.625 2.188q0.625 0.625 0.625 1.453t-0.594 1.422zM13 32q-0.406 0-0.703-0.297t-0.297-0.703v-13h-5v3.25q-0.031 0.031-0.063 0.109t-0.125 0.266-0.203 0.25-0.281 0.125-0.328-0.125q-0.156-0.156-2.703-2.219t-2.703-2.219q-0.594-0.594-0.594-1.422t0.625-1.453q0.25-0.25 2.594-2.172t2.781-2.266q0.281-0.188 0.516-0.063t0.359 0.406l0.125 0.281v3.25h5v-13q0-0.406 0.297-0.703t0.703-0.297 0.703 0.297 0.297 0.703v30q0 0.406-0.297 0.703t-0.703 0.297z" fill="#000000" />
</svg>
