<?xml version="1.0" encoding="utf-8"?>
<!-- Generated by IcoMoon.io -->
<!DOCTYPE svg PUBLIC "-//W3C//DTD SVG 1.1//EN" "http://www.w3.org/Graphics/SVG/1.1/DTD/svg11.dtd">
<svg version="1.1" xmlns="http://www.w3.org/2000/svg" xmlns:xlink="http://www.w3.org/1999/xlink" width="32" height="32" viewBox="0 0 32 32">
<g>
</g>
	<path d="M16 32q-3.688 0-6.938-1.578t-5.469-4.359l6.281-4.906q1.125 1.344 2.719 2.094t3.406 0.75q3.313 0 5.656-2.328t2.344-5.641-2.344-5.656-5.656-2.344q-2.719 0-4.875 1.688l4.906 4.875q0.063 1.469-0.938 1.438h-13.75q-0.531-0.031-0.906-0.594t-0.375-1.219l-0.063-13.25q-0.031-0.969 1.438-0.938l4 4q2.156-1.906 4.875-2.953t5.688-1.047q3.25 0 6.219 1.266t5.109 3.406 3.406 5.094 1.266 6.219-1.266 6.219-3.406 5.094-5.109 3.406-6.219 1.266z" fill="#000000" />
</svg>
