<?xml version="1.0" encoding="utf-8"?>
<!-- Generated by IcoMoon.io -->
<!DOCTYPE svg PUBLIC "-//W3C//DTD SVG 1.1//EN" "http://www.w3.org/Graphics/SVG/1.1/DTD/svg11.dtd">
<svg version="1.1" xmlns="http://www.w3.org/2000/svg" xmlns:xlink="http://www.w3.org/1999/xlink" width="32" height="32" viewBox="0 0 32 32">
<g>
</g>
	<path d="M16 32q-4.344 0-8.031-2.141t-5.828-5.828-2.141-8.031 2.141-8.031 5.828-5.828 8.031-2.141 8.031 2.141 5.828 5.828 2.141 8.031-2.141 8.031-5.828 5.828-8.031 2.141zM23.406 12.531l-5.938-5.938q-0.688-0.656-1.688-0.531h-0.094q-0.094 0-0.188 0.031l-0.047 0.016t-0.078 0.016l-0.063 0.031t-0.094 0.031q-0.469 0.156-0.719 0.406l-5.938 5.938q-0.594 0.594-0.594 1.438t0.594 1.438 1.438 0.594 1.438-0.594l2.563-2.531v11.125q0 0.844 0.578 1.422t1.406 0.578 1.406-0.578 0.578-1.422v-11.125l2.563 2.531q0.594 0.594 1.438 0.594t1.438-0.594 0.594-1.438-0.594-1.438z" fill="#000000" />
</svg>
