<?xml version="1.0" encoding="utf-8"?>
<!-- Generated by IcoMoon.io -->
<!DOCTYPE svg PUBLIC "-//W3C//DTD SVG 1.1//EN" "http://www.w3.org/Graphics/SVG/1.1/DTD/svg11.dtd">
<svg version="1.1" xmlns="http://www.w3.org/2000/svg" xmlns:xlink="http://www.w3.org/1999/xlink" width="32" height="32" viewBox="0 0 32 32">
<g>
</g>
	<path d="M31.938 14.219q0 0.656-0.375 1.219t-0.906 0.594h-13.75q-0.969 0.031-0.938-1.438l4.906-4.875q-2.156-1.688-4.875-1.688-3.313 0-5.656 2.344t-2.344 5.656 2.344 5.641 5.656 2.328q1.813 0 3.406-0.75t2.719-2.094l6.281 4.906q-2.219 2.781-5.469 4.359t-6.938 1.578q-3.25 0-6.219-1.266t-5.109-3.406-3.406-5.109-1.266-6.219 1.266-6.203 3.406-5.094 5.109-3.406 6.219-1.266q2.969 0 5.688 1.047t4.875 2.953l4-4q1.469-0.031 1.438 0.938z" fill="#000000" />
</svg>
