<?xml version="1.0" encoding="utf-8"?>
<!-- Generated by IcoMoon.io -->
<!DOCTYPE svg PUBLIC "-//W3C//DTD SVG 1.1//EN" "http://www.w3.org/Graphics/SVG/1.1/DTD/svg11.dtd">
<svg version="1.1" xmlns="http://www.w3.org/2000/svg" xmlns:xlink="http://www.w3.org/1999/xlink" width="32" height="32" viewBox="0 0 32 32">
<g>
</g>
	<path d="M16 32q-4.344 0-8.031-2.141t-5.828-5.828-2.141-8.031 2.141-8.031 5.828-5.828 8.031-2.141 8.031 2.141 5.828 5.828 2.141 8.031-2.141 8.031-5.828 5.828-8.031 2.141zM25.969 15.813v-0.125q0-0.094-0.031-0.156 0-0.031-0.016-0.078t-0.031-0.063-0.031-0.078-0.016-0.094q-0.156-0.438-0.406-0.688l-5.969-5.969q-0.594-0.594-1.438-0.594t-1.438 0.594-0.594 1.438 0.594 1.438l2.563 2.563h-11.156q-0.813 0-1.406 0.594t-0.594 1.406 0.594 1.406 1.406 0.594h11.156l-2.563 2.563q-0.594 0.594-0.594 1.438t0.594 1.438 1.438 0.594 1.438-0.594l5.969-5.969q0.656-0.656 0.531-1.656z" fill="#000000" />
</svg>
