<?xml version="1.0" encoding="utf-8"?>
<!-- Generated by IcoMoon.io -->
<!DOCTYPE svg PUBLIC "-//W3C//DTD SVG 1.1//EN" "http://www.w3.org/Graphics/SVG/1.1/DTD/svg11.dtd">
<svg version="1.1" xmlns="http://www.w3.org/2000/svg" xmlns:xlink="http://www.w3.org/1999/xlink" width="32" height="32" viewBox="0 0 32 32">
<g>
</g>
	<path d="M31.625 10.063l-6.063 5.656q-0.625 0.75-1.531-0.344v-3.375h-4.031q-0.813 0-1.406 0.578t-0.594 1.422v6q0 2.188-0.609 3.766t-1.734 2.484-2.531 1.328-3.125 0.422h-10v-6h10q0.844 0 1.422-0.594t0.578-1.406v-6q0-2.188 0.625-3.781t1.734-2.484 2.516-1.313 3.125-0.422h4.031v-3.375q0.906-1.063 1.531-0.344l6.063 5.688q0.375 0.438 0.375 1.047t-0.375 1.047z" fill="#000000" />
</svg>
