<?xml version="1.0" encoding="utf-8"?>
<!-- Generated by IcoMoon.io -->
<!DOCTYPE svg PUBLIC "-//W3C//DTD SVG 1.1//EN" "http://www.w3.org/Graphics/SVG/1.1/DTD/svg11.dtd">
<svg version="1.1" xmlns="http://www.w3.org/2000/svg" xmlns:xlink="http://www.w3.org/1999/xlink" width="32" height="32" viewBox="0 0 32 32">
<g>
</g>
	<path d="M16 32q-4.344 0-8.031-2.141t-5.828-5.828-2.141-8.031 2.141-8.031 5.828-5.828 8.031-2.141 8.031 2.141 5.828 5.828 2.141 8.031-2.141 8.031-5.828 5.828-8.031 2.141zM24 14h-11.156l2.563-2.563q0.594-0.594 0.594-1.438t-0.594-1.438-1.438-0.594-1.438 0.594l-5.969 5.969q-0.25 0.25-0.406 0.688 0 0.031-0.063 0.188l-0.016 0.047t-0.016 0.078q0 0.063-0.031 0.156v0.125q-0.125 1 0.531 1.656l5.969 5.969q0.594 0.594 1.438 0.594t1.438-0.594 0.594-1.438-0.594-1.438l-2.563-2.563h11.156q0.813 0 1.406-0.594t0.594-1.406-0.578-1.406-1.422-0.594z" fill="#000000" />
</svg>
