<?xml version="1.0" encoding="utf-8"?>
<!-- Generated by IcoMoon.io -->
<!DOCTYPE svg PUBLIC "-//W3C//DTD SVG 1.1//EN" "http://www.w3.org/Graphics/SVG/1.1/DTD/svg11.dtd">
<svg version="1.1" xmlns="http://www.w3.org/2000/svg" xmlns:xlink="http://www.w3.org/1999/xlink" width="32" height="32" viewBox="0 0 32 32">
<g>
</g>
	<path d="M28 32h-24q-1.656 0-2.828-1.172t-1.172-2.828v-24q0-1.656 1.172-2.828t2.828-1.172h24q1.656 0 2.828 1.172t1.172 2.828v24q0 1.656-1.172 2.828t-2.828 1.172zM13 8h-3v-3q0-0.406-0.297-0.703t-0.703-0.297-0.703 0.297-0.297 0.703v3h-3q-0.406 0-0.703 0.297t-0.297 0.703 0.297 0.703 0.703 0.297h3v3q0 0.406 0.297 0.703t0.703 0.297 0.703-0.297 0.297-0.703v-3h3q0.406 0 0.703-0.297t0.297-0.703-0.297-0.703-0.703-0.297zM13.766 18.234q-0.234-0.234-0.578-0.234t-0.594 0.219l-3.594 3.594-3.594-3.594q-0.25-0.219-0.594-0.219t-0.578 0.234-0.234 0.578 0.219 0.594l3.594 3.594-3.563 3.563q-0.25 0.25-0.25 0.594t0.25 0.594 0.594 0.25 0.594-0.25l3.563-3.563 3.563 3.563q0.25 0.25 0.594 0.25t0.594-0.25 0.25-0.594-0.25-0.594l-3.563-3.563 3.594-3.594q0.219-0.25 0.219-0.594t-0.234-0.578zM27 8h-8q-0.406 0-0.703 0.297t-0.297 0.703 0.297 0.703 0.703 0.297h8q0.406 0 0.703-0.297t0.297-0.703-0.297-0.703-0.703-0.297zM27 20h-8q-0.406 0-0.703 0.297t-0.297 0.703 0.297 0.703 0.703 0.297h8q0.406 0 0.703-0.297t0.297-0.703-0.297-0.703-0.703-0.297zM27 24h-8q-0.406 0-0.703 0.297t-0.297 0.703 0.297 0.703 0.703 0.297h8q0.406 0 0.703-0.297t0.297-0.703-0.297-0.703-0.703-0.297z" fill="#000000" />
</svg>
