<?xml version="1.0" encoding="utf-8"?>
<!-- Generated by IcoMoon.io -->
<!DOCTYPE svg PUBLIC "-//W3C//DTD SVG 1.1//EN" "http://www.w3.org/Graphics/SVG/1.1/DTD/svg11.dtd">
<svg version="1.1" xmlns="http://www.w3.org/2000/svg" xmlns:xlink="http://www.w3.org/1999/xlink" width="32" height="32" viewBox="0 0 32 32">
<g>
</g>
	<path d="M28.688 31.594q-0.281 0.406-0.672 0.406t-0.672-0.406l-2.969-3.594h-0.719l-2.969 3.594q-0.281 0.406-0.672 0.406t-0.672-0.406l-2.969-3.594h-0.719l-2.969 3.594q-0.281 0.406-0.672 0.406t-0.672-0.406l-2.969-3.594h-0.719l-2.969 3.594q-0.281 0.406-0.672 0.406t-0.672-0.406l-1.344-1.625v-15.969q0-2.844 1.109-5.438t2.984-4.469 4.469-2.984 5.438-1.109 5.438 1.109 4.469 2.984 2.984 4.469 1.109 5.438v16zM16 10q0-0.844-0.578-1.422t-1.422-0.578h-6q-0.813 0-1.406 0.578t-0.594 1.422v6q0 0.813 0.594 1.406t1.406 0.594h6q0.844 0 1.422-0.594t0.578-1.406v-6zM28 10q0-0.844-0.578-1.422t-1.422-0.578h-6q-0.813 0-1.406 0.578t-0.594 1.422v6q0 0.813 0.594 1.406t1.406 0.594h6q0.844 0 1.422-0.594t0.578-1.406v-6zM25 16h-2q-0.406 0-0.703-0.297t-0.297-0.703v-2q0-0.406 0.297-0.703t0.703-0.297h2q0.406 0 0.703 0.297t0.297 0.703v2q0 0.406-0.297 0.703t-0.703 0.297zM13 16h-2q-0.406 0-0.703-0.297t-0.297-0.703v-2q0-0.406 0.297-0.703t0.703-0.297h2q0.406 0 0.703 0.297t0.297 0.703v2q0 0.406-0.297 0.703t-0.703 0.297z" fill="#000000" />
</svg>
