<?xml version="1.0" encoding="utf-8"?>
<!-- Generated by IcoMoon.io -->
<!DOCTYPE svg PUBLIC "-//W3C//DTD SVG 1.1//EN" "http://www.w3.org/Graphics/SVG/1.1/DTD/svg11.dtd">
<svg version="1.1" xmlns="http://www.w3.org/2000/svg" xmlns:xlink="http://www.w3.org/1999/xlink" width="32" height="32" viewBox="0 0 32 32">
<g>
</g>
	<path d="M29.125 29.125q-2.656 2.656-6.219 2.859t-5.906-2.141q-0.813-0.844-1.281-1.453t-0.719-1.391q0-0.781-0.406-1.797t-1.156-1.797q-0.938-0.938-1.953-1.391t-1.734-0.328q-1.531-1.781-1.672-4.516t1.203-4.891l-4.406-4.406q-1.25 0.375-2.156-0.5l-2.094-2.094q-0.625-0.656-0.625-1.563t0.625-1.531l1.563-1.531q0.625-0.656 1.531-0.656t1.563 0.656l2.094 2.063q0.875 0.906 0.5 2.156l4.406 4.406q2.156-1.344 4.891-1.203t4.516 1.672q-0.125 0.719 0.328 1.734t1.391 1.953q0.781 0.75 1.797 1.156t1.797 0.406q0.781 0.25 1.391 0.719t1.453 1.281q2.344 2.344 2.141 5.906t-2.859 6.219zM17 14q-1.25 0-2.125 0.875t-0.875 2.125 0.875 2.125 2.125 0.875 2.125-0.875 0.875-2.125-0.875-2.125-2.125-0.875zM26.813 22l-4.813 4.813 1.188 1.188 4.813-4.813z" fill="#000000" />
</svg>
