<?xml version="1.0" encoding="utf-8"?>
<!-- Generated by IcoMoon.io -->
<!DOCTYPE svg PUBLIC "-//W3C//DTD SVG 1.1//EN" "http://www.w3.org/Graphics/SVG/1.1/DTD/svg11.dtd">
<svg version="1.1" xmlns="http://www.w3.org/2000/svg" xmlns:xlink="http://www.w3.org/1999/xlink" width="32" height="32" viewBox="0 0 32 32">
<g>
</g>
	<path d="M30.344 7.75h-0.031l-2.219-3.719-3.969 0.531 2.5 3.75-6.625 1.031-2.531-3.75-3.625 0.563 2.531 3.75-6.875 1.094-2.406-3.969-3.813 0.75 2.531 3.781-2.969 0.469h3.25l-2 3.969h4l2-3.969h6l-2 3.969h4l2-3.969h6l-2 3.969h4l2-3.969q0.813 0 1.406 0.578t0.594 1.391v16q0 0.844-0.594 1.422t-1.406 0.578h-27.969q-0.844 0-1.422-0.578t-0.578-1.422v-16q0-0.813 0.578-1.391t1.422-0.578q-0.156-0.063-0.375-0.172t-0.641-0.547-0.516-0.969l-0.5-3.875q-0.094-0.781 0.422-1.422t1.328-0.734l27.563-4.281q0.813-0.094 1.453 0.406t0.734 1.281l0.5 3.875q0.094 0.781-0.422 1.422t-1.328 0.734zM5.094 28h22q0.406 0 0.703-0.297t0.297-0.703-0.297-0.703-0.703-0.297h-22q-0.406 0-0.703 0.297t-0.297 0.703 0.297 0.703 0.703 0.297zM5.094 22h22q0.406 0 0.703-0.281t0.297-0.703-0.297-0.719-0.703-0.297h-22q-0.406 0-0.703 0.297t-0.297 0.719 0.297 0.703 0.703 0.281z" fill="#000000" />
</svg>
