<?xml version="1.0" encoding="utf-8"?>
<!-- Generated by IcoMoon.io -->
<!DOCTYPE svg PUBLIC "-//W3C//DTD SVG 1.1//EN" "http://www.w3.org/Graphics/SVG/1.1/DTD/svg11.dtd">
<svg version="1.1" xmlns="http://www.w3.org/2000/svg" xmlns:xlink="http://www.w3.org/1999/xlink" width="32" height="32" viewBox="0 0 32 32">
<g>
</g>
	<path d="M28 13q0 1.875-1.078 4.047t-2.5 3.563-2.422 1.391q-0.781 0-1.391-0.625t-0.609-1.375q0-0.813 0.578-1.406t1.422-0.594q-0.031-0.25-0.125-0.656t-0.438-1.438-0.75-1.813-1.125-1.438-1.563-0.656q-1.094 0-1.547 0.422t-0.453 1.578v14q0 1.656-1.75 2.828t-4.25 1.172-4.25-1.172-1.75-2.828 1.75-2.828 4.25-1.172q0.969 0 2 0.25v-22.25q0-0.813 0.594-1.406t1.406-0.594q1.25 0 7 4 1 0.656 1.656 1.109t1.781 1.422 1.797 1.844 1.219 2.125 0.547 2.5z" fill="#000000" />
</svg>
