<?xml version="1.0" encoding="utf-8"?>
<!-- Generated by IcoMoon.io -->
<!DOCTYPE svg PUBLIC "-//W3C//DTD SVG 1.1//EN" "http://www.w3.org/Graphics/SVG/1.1/DTD/svg11.dtd">
<svg version="1.1" xmlns="http://www.w3.org/2000/svg" xmlns:xlink="http://www.w3.org/1999/xlink" width="32" height="32" viewBox="0 0 32 32">
<g>
</g>
	<path d="M32 24q0 1.656-1.172 2.828t-2.828 1.172h-24q-1.656 0-2.828-1.172t-1.172-2.828v-12q0-1.656 1.172-2.828t2.828-1.172h4v-5.25q1.156-1.25 1.938-0.406l7.594 6.469q0.469 0.5 0.469 1.203t-0.469 1.172l-7.594 6.5q-0.781 0.813-1.938-0.438v-5.25h-2q-0.813 0-1.406 0.578t-0.594 1.422v8q0 0.813 0.594 1.406t1.406 0.594h20q0.844 0 1.422-0.594t0.578-1.406v-8q0-0.844-0.578-1.422t-1.422-0.578h-2q-0.813 0-1.406-0.594t-0.594-1.422 0.594-1.406 1.406-0.578v0h4q1.656 0 2.828 1.172t1.172 2.828v12z" fill="#000000" />
</svg>
