<?xml version="1.0" encoding="utf-8"?>
<!-- Generated by IcoMoon.io -->
<!DOCTYPE svg PUBLIC "-//W3C//DTD SVG 1.1//EN" "http://www.w3.org/Graphics/SVG/1.1/DTD/svg11.dtd">
<svg version="1.1" xmlns="http://www.w3.org/2000/svg" xmlns:xlink="http://www.w3.org/1999/xlink" width="32" height="32" viewBox="0 0 32 32">
<g>
</g>
	<path d="M28 26h-18v5.281q-1.156 1.219-1.938 0.375l-7.594-6.469q-0.469-0.5-0.469-1.188t0.469-1.188l7.594-6.469q0.781-0.844 1.938 0.406v5.25h16q0.813 0 1.406-0.578t0.594-1.422v-4q0-0.813 0.578-1.406t1.406-0.594 1.422 0.594 0.594 1.406v6q0 1.656-1.172 2.828t-2.828 1.172zM23.938 15.688q-0.781 0.844-1.938-0.406v-5.281h-16q-0.844 0-1.422 0.594t-0.578 1.406v4q0 0.844-0.594 1.422t-1.422 0.578-1.406-0.578-0.578-1.422v-6q0-1.656 1.172-2.828t2.828-1.172h18v-5.25q1.156-1.219 1.938-0.375l7.594 6.469q0.469 0.5 0.469 1.188t-0.469 1.188z" fill="#000000" />
</svg>
