<?xml version="1.0" encoding="utf-8"?>
<!-- Generated by IcoMoon.io -->
<!DOCTYPE svg PUBLIC "-//W3C//DTD SVG 1.1//EN" "http://www.w3.org/Graphics/SVG/1.1/DTD/svg11.dtd">
<svg version="1.1" xmlns="http://www.w3.org/2000/svg" xmlns:xlink="http://www.w3.org/1999/xlink" width="32" height="32" viewBox="0 0 32 32">
<g>
</g>
	<path d="M23.938 15.656q-0.781 0.844-1.938-0.406v-5.188q-3.844 0.313-6.156 1.625-0.469-1.906-2.188-3.438 3.5-2.25 8.344-2.281v-5.25q1.156-1.219 1.938-0.375l7.594 6.469q0.469 0.5 0.469 1.188t-0.469 1.188zM14 18q0 1.438 2.266 2.531t5.734 1.375v-5.188q1.156-1.219 1.938-0.375l7.594 6.469q0.469 0.5 0.469 1.188t-0.469 1.188l-7.594 6.469q-0.781 0.844-1.938-0.406v-5.25q-3.25 0-6.016-1.078t-4.375-2.922-1.609-4v-4q0-1.469-2.266-2.563t-5.734-1.375v-0.063q-0.813 0-1.406-0.594t-0.594-1.422 0.594-1.422 1.406-0.594q3.25 0 6.016 1.078t4.375 2.922 1.609 4.031v4zM2 22v-0.094q3.844-0.313 6.156-1.625 0.469 1.875 2.188 3.438-3.5 2.281-8.344 2.281-0.813 0-1.406-0.594t-0.594-1.422 0.594-1.406 1.406-0.578z" fill="#000000" />
</svg>
