<?xml version="1.0" encoding="utf-8"?>
<!-- Generated by IcoMoon.io -->
<!DOCTYPE svg PUBLIC "-//W3C//DTD SVG 1.1//EN" "http://www.w3.org/Graphics/SVG/1.1/DTD/svg11.dtd">
<svg version="1.1" xmlns="http://www.w3.org/2000/svg" xmlns:xlink="http://www.w3.org/1999/xlink" width="32" height="32" viewBox="0 0 32 32">
<g>
</g>
	<path d="M16 32q-3.25 0-6.219-1.266t-5.109-3.406-3.406-5.109-1.266-6.219 1.266-6.219 3.406-5.109 5.109-3.406 6.219-1.266 6.219 1.266 5.109 3.406 3.406 5.109 1.266 6.219-1.266 6.219-3.406 5.109-5.109 3.406-6.219 1.266zM15.781 15.406l-6.813-7.219q-0.406-0.438-0.969 0.188v15.25q0.563 0.625 0.969 0.219l6.813-7.25q0.219-0.219 0.219-0.578t-0.219-0.609zM25.781 15.406l-6.813-7.219q-0.375-0.438-0.969 0.188v15.25q0.594 0.625 0.969 0.219l6.813-7.25q0.219-0.219 0.219-0.578t-0.219-0.609z" fill="#000000" />
</svg>
