<?xml version="1.0" encoding="utf-8"?>
<!-- Generated by IcoMoon.io -->
<!DOCTYPE svg PUBLIC "-//W3C//DTD SVG 1.1//EN" "http://www.w3.org/Graphics/SVG/1.1/DTD/svg11.dtd">
<svg version="1.1" xmlns="http://www.w3.org/2000/svg" xmlns:xlink="http://www.w3.org/1999/xlink" width="32" height="32" viewBox="0 0 32 32">
<g>
</g>
	<path d="M30 18h-8v-4h8q0.844 0 1.422 0.578t0.578 1.406-0.578 1.422-1.422 0.594zM30 6h-8v-4h8q0.844 0 1.422 0.578t0.578 1.406-0.578 1.422-1.422 0.594zM19 32h-6q-0.406 0-0.703-0.297t-0.297-0.703v-6q0-0.406 0.297-0.703t0.703-0.297h6q0.406 0 0.703 0.297t0.297 0.703v6q0 0.406-0.297 0.703t-0.703 0.297zM19 20h-6q-0.406 0-0.703-0.297t-0.297-0.703v-6q0-0.406 0.297-0.703t0.703-0.297h6q0.406 0 0.703 0.297t0.297 0.703v6q0 0.406-0.297 0.703t-0.703 0.297zM19 8h-6q-0.406 0-0.703-0.297t-0.297-0.703v-6q0-0.406 0.297-0.703t0.703-0.297h6q0.406 0 0.703 0.297t0.297 0.703v6q0 0.406-0.297 0.703t-0.703 0.297zM0 27.984q0-0.828 0.578-1.406t1.422-0.578h8v4h-8q-0.844 0-1.422-0.594t-0.578-1.422zM0 15.984q0-0.828 0.578-1.406t1.422-0.578h8v4h-8q-0.844 0-1.422-0.594t-0.578-1.422zM0 3.984q0-0.828 0.578-1.406t1.422-0.578h8v4h-8q-0.844 0-1.422-0.594t-0.578-1.422zM32 27.984q0 0.828-0.578 1.422t-1.422 0.594h-8v-4h8q0.844 0 1.422 0.578t0.578 1.406z" fill="#000000" />
</svg>
