<?xml version="1.0" encoding="utf-8"?>
<!-- Generated by IcoMoon.io -->
<!DOCTYPE svg PUBLIC "-//W3C//DTD SVG 1.1//EN" "http://www.w3.org/Graphics/SVG/1.1/DTD/svg11.dtd">
<svg version="1.1" xmlns="http://www.w3.org/2000/svg" xmlns:xlink="http://www.w3.org/1999/xlink" width="32" height="32" viewBox="0 0 32 32">
<g>
</g>
	<path d="M16 32q-4.344 0-8.031-2.141t-5.828-5.828-2.141-8.031 2.141-8.031 5.828-5.828 8.031-2.141 8.031 2.141 5.828 5.828 2.141 8.031-2.141 8.031-5.828 5.828-8.031 2.141zM27.375 16h-7.344v-10q0-0.844-0.594-1.422t-1.406-0.578h-4.031q-0.813 0-1.406 0.578t-0.594 1.422v10h-7.375q-0.469 0-0.578 0.188t0.266 0.594l10.688 10.781q0.406 0.438 1.016 0.438t1.016-0.438l10.688-10.781q0.375-0.406 0.25-0.594t-0.594-0.188z" fill="#000000" />
</svg>
