<?xml version="1.0" encoding="utf-8"?>
<!-- Generated by IcoMoon.io -->
<!DOCTYPE svg PUBLIC "-//W3C//DTD SVG 1.1//EN" "http://www.w3.org/Graphics/SVG/1.1/DTD/svg11.dtd">
<svg version="1.1" xmlns="http://www.w3.org/2000/svg" xmlns:xlink="http://www.w3.org/1999/xlink" width="32" height="32" viewBox="0 0 32 32">
<g>
</g>
	<path d="M16 32q-4.344 0-8.031-2.141t-5.828-5.828-2.141-8.031 2.141-8.031 5.828-5.828 8.031-2.141 8.031 2.141 5.828 5.828 2.141 8.031-2.141 8.031-5.828 5.828-8.031 2.141zM17.031 4.438q-0.406-0.438-1.016-0.438t-1.016 0.438l-10.688 10.781q-0.375 0.438-0.266 0.609t0.578 0.172h7.375v10q0 0.844 0.594 1.422t1.406 0.578h4.031q0.813 0 1.406-0.578t0.594-1.422v-10h7.344q0.469 0 0.594-0.172t-0.25-0.609z" fill="#000000" />
</svg>
