<?xml version="1.0" encoding="utf-8"?>
<!-- Generated by IcoMoon.io -->
<!DOCTYPE svg PUBLIC "-//W3C//DTD SVG 1.1//EN" "http://www.w3.org/Graphics/SVG/1.1/DTD/svg11.dtd">
<svg version="1.1" xmlns="http://www.w3.org/2000/svg" xmlns:xlink="http://www.w3.org/1999/xlink" width="32" height="32" viewBox="0 0 32 32">
<g>
</g>
	<path d="M16 32q-3.25 0-6.219-1.266t-5.109-3.406-3.406-5.109-1.266-6.219 1.266-6.219 3.406-5.109 5.109-3.406 6.219-1.266 6.219 1.266 5.109 3.406 3.406 5.109 1.266 6.219-1.266 6.219-3.406 5.109-5.109 3.406-6.219 1.266zM14 10q0-0.813-0.578-1.406t-1.422-0.594h-2q-0.813 0-1.406 0.594t-0.594 1.406v12q0 0.844 0.594 1.422t1.406 0.578h2q0.844 0 1.422-0.578t0.578-1.422v-12zM24 10q0-0.813-0.578-1.406t-1.422-0.594h-2q-0.813 0-1.406 0.594t-0.594 1.406v12q0 0.844 0.594 1.422t1.406 0.578h2q0.844 0 1.422-0.578t0.578-1.422v-12z" fill="#000000" />
</svg>
