<?xml version="1.0" encoding="utf-8"?>
<!-- Generated by IcoMoon.io -->
<!DOCTYPE svg PUBLIC "-//W3C//DTD SVG 1.1//EN" "http://www.w3.org/Graphics/SVG/1.1/DTD/svg11.dtd">
<svg version="1.1" xmlns="http://www.w3.org/2000/svg" xmlns:xlink="http://www.w3.org/1999/xlink" width="32" height="32" viewBox="0 0 32 32">
<g>
</g>
	<path d="M30 18l1.688 4.219q0.281 0.313 0.281 0.734t-0.297 0.734-0.734 0.313-0.75-0.313l-2.188-5.688h-2v5q0 0.438-0.297 0.719t-0.703 0.281-0.703-0.281-0.297-0.719v-13.969q0-0.438 0.297-0.734t0.703-0.297v0h3q1.656 0 2.828 1.172t1.172 2.828v2.031q0 1.188-0.578 2.281t-1.422 1.688zM30 12q0-0.813-0.594-1.406t-1.406-0.594h-2v6h2q0.813 0 1.406-0.578t0.594-1.422v-2zM17.656 31.625l-7.531-7.594h-0.125v-16.031h0.125l7.531-7.594q0.938-0.938 2.344 0.5v30.25q-1.406 1.438-2.344 0.469zM0 22.031v-12.031q0-0.813 0.578-1.406t1.422-0.594h6v16.031h-6q-0.844 0-1.422-0.594t-0.578-1.406z" fill="#000000" />
</svg>
