<?xml version="1.0" encoding="utf-8"?>
<!-- Generated by IcoMoon.io -->
<!DOCTYPE svg PUBLIC "-//W3C//DTD SVG 1.1//EN" "http://www.w3.org/Graphics/SVG/1.1/DTD/svg11.dtd">
<svg version="1.1" xmlns="http://www.w3.org/2000/svg" xmlns:xlink="http://www.w3.org/1999/xlink" width="32" height="32" viewBox="0 0 32 32">
<g>
</g>
	<path d="M30 18h-20v-4h20q0.844 0 1.422 0.594t0.578 1.422-0.578 1.406-1.422 0.578zM31 8h-6q-0.406 0-0.703-0.297t-0.297-0.703v-6q0-0.406 0.297-0.703t0.703-0.297h6q0.406 0 0.703 0.297t0.297 0.703v6q0 0.406-0.297 0.703t-0.703 0.297zM0 4.016q0-0.828 0.594-1.422t1.406-0.594h20v4h-20q-0.813 0-1.406-0.578t-0.594-1.406zM1 12h6q0.406 0 0.703 0.297t0.297 0.703v6q0 0.406-0.297 0.703t-0.703 0.297h-6q-0.406 0-0.703-0.297t-0.297-0.703v-6q0-0.406 0.297-0.703t0.703-0.297zM1 24h6q0.406 0 0.703 0.297t0.297 0.703v6q0 0.406-0.297 0.703t-0.703 0.297h-6q-0.406 0-0.703-0.297t-0.297-0.703v-6q0-0.406 0.297-0.703t0.703-0.297zM32 28.016q0 0.828-0.578 1.406t-1.422 0.578h-20v-4h20q0.844 0 1.422 0.594t0.578 1.422z" fill="#000000" />
</svg>
