<?xml version="1.0" encoding="utf-8"?>
<!-- Generated by IcoMoon.io -->
<!DOCTYPE svg PUBLIC "-//W3C//DTD SVG 1.1//EN" "http://www.w3.org/Graphics/SVG/1.1/DTD/svg11.dtd">
<svg version="1.1" xmlns="http://www.w3.org/2000/svg" xmlns:xlink="http://www.w3.org/1999/xlink" width="32" height="32" viewBox="0 0 32 32">
<g>
</g>
	<path d="M29.984 18q-0.828 0-1.406 1.172t-0.578 2.828v6q0 1.656-1.172 2.828t-2.828 1.172h-2q-0.844 0-1.422-0.594t-0.578-1.422 0.594-1.406 1.406-0.578h1q0.406 0 0.703-0.297t0.297-0.703v-7q0-1.656 1.172-2.828t2.828-1.172q-1.656 0-2.828-1.172t-1.172-2.828v-7q0-0.406-0.297-0.703t-0.703-0.297h-1q-0.844 0-1.422-0.594t-0.578-1.422 0.594-1.406 1.406-0.578h2q1.656 0 2.828 1.172t1.172 2.828v6q0 1.656 0.594 2.828t1.406 1.172 1.406 0.594 0.594 1.406-0.594 1.406-1.422 0.594zM8 20v7q0 0.406 0.297 0.703t0.703 0.297h1q0.844 0 1.422 0.578t0.578 1.406-0.578 1.422-1.422 0.594h-2q-1.656 0-2.828-1.172t-1.172-2.828v-6q0-1.656-0.578-2.828t-1.406-1.172-1.422-0.594-0.594-1.406 0.594-1.406 1.422-0.594 1.406-1.172 0.578-2.828v-6q0-1.656 1.172-2.828t2.828-1.172h2q0.844 0 1.422 0.578t0.578 1.422-0.578 1.422-1.422 0.578h-1q-0.406 0-0.703 0.297t-0.297 0.703v7q0 1.656-1.172 2.828t-2.828 1.172q1.656 0 2.828 1.172t1.172 2.828z" fill="#000000" />
</svg>
