<?xml version="1.0" encoding="utf-8"?>
<!-- Generated by IcoMoon.io -->
<!DOCTYPE svg PUBLIC "-//W3C//DTD SVG 1.1//EN" "http://www.w3.org/Graphics/SVG/1.1/DTD/svg11.dtd">
<svg version="1.1" xmlns="http://www.w3.org/2000/svg" xmlns:xlink="http://www.w3.org/1999/xlink" width="32" height="32" viewBox="0 0 32 32">
<g>
</g>
	<path d="M16 32q-4.344 0-8.031-2.141t-5.828-5.828-2.141-8.031 2.141-8.031 5.828-5.828 8.031-2.141 8.031 2.141 5.828 5.828 2.141 8.031-2.141 8.031-5.828 5.828-8.031 2.141zM23 6.25q-0.719-0.375-1.516-0.188t-1.203 0.844l-4.281 5.969-4.281-5.969q-0.406-0.656-1.203-0.844t-1.516 0.188-0.938 1.094 0.219 1.344l5.719 8.031v7.281q0 0.813 0.594 1.406t1.406 0.594 1.406-0.594 0.594-1.406v-7.281l5.719-8.031q0.438-0.625 0.219-1.344t-0.938-1.094z" fill="#000000" />
</svg>
