<?xml version="1.0" encoding="utf-8"?>
<!-- Generated by IcoMoon.io -->
<!DOCTYPE svg PUBLIC "-//W3C//DTD SVG 1.1//EN" "http://www.w3.org/Graphics/SVG/1.1/DTD/svg11.dtd">
<svg version="1.1" xmlns="http://www.w3.org/2000/svg" xmlns:xlink="http://www.w3.org/1999/xlink" width="32" height="32" viewBox="0 0 32 32">
<g>
</g>
	<path d="M16 32q-4.344 0-8.031-2.141t-5.828-5.828-2.141-8.031 2.141-8.031 5.828-5.828 8.031-2.141 8.031 2.141 5.828 5.828 2.141 8.031-2.141 8.031-5.828 5.828-8.031 2.141zM25.719 23.188l-7.875-16.031q-0.656-1.156-1.844-1.156-1.156 0-1.719 0.938l-8 16.25q-0.438 0.688-0.219 1.438t0.938 1.125 1.516 0.188 1.203-0.875l1.531-3.063h9.5l1.531 3.063q0.406 0.688 1.203 0.875t1.516-0.188 0.938-1.125-0.219-1.438zM13.219 18l2.781-5.656 2.781 5.656h-5.563z" fill="#000000" />
</svg>
