<?xml version="1.0" encoding="utf-8"?>
<!-- Generated by IcoMoon.io -->
<!DOCTYPE svg PUBLIC "-//W3C//DTD SVG 1.1//EN" "http://www.w3.org/Graphics/SVG/1.1/DTD/svg11.dtd">
<svg version="1.1" xmlns="http://www.w3.org/2000/svg" xmlns:xlink="http://www.w3.org/1999/xlink" width="32" height="32" viewBox="0 0 32 32">
<g>
</g>
	<path d="M16 32q-4.344 0-8.031-2.141t-5.828-5.828-2.141-8.031 2.141-8.031 5.828-5.828 8.031-2.141 8.031 2.141 5.828 5.828 2.141 8.031-2.141 8.031-5.828 5.828-8.031 2.141zM21.188 14.938q0.813-1.406 0.813-2.938 0-2.5-1.75-4.25t-4.25-1.75h-6q-0.813 0-1.406 0.594t-0.594 1.406v16q0 0.813 0.594 1.406t1.406 0.594h8q2.5 0 4.25-1.75t1.75-4.25q0-1.563-0.75-2.906t-2.063-2.156zM18 22h-6v-4h6q0.844 0 1.422 0.594t0.578 1.422-0.594 1.406-1.406 0.578zM16 14h-4v-4h4q0.813 0 1.406 0.594t0.594 1.422-0.578 1.406-1.422 0.578z" fill="#000000" />
</svg>
