<?xml version="1.0" encoding="utf-8"?>
<!-- Generated by IcoMoon.io -->
<!DOCTYPE svg PUBLIC "-//W3C//DTD SVG 1.1//EN" "http://www.w3.org/Graphics/SVG/1.1/DTD/svg11.dtd">
<svg version="1.1" xmlns="http://www.w3.org/2000/svg" xmlns:xlink="http://www.w3.org/1999/xlink" width="32" height="32" viewBox="0 0 32 32">
<g>
</g>
	<path d="M31 14h-1v4h1q0.406 0 0.703 0.297t0.297 0.703-0.297 0.703-0.703 0.297h-1v1q0 0.406-0.297 0.703t-0.703 0.297-0.703-0.297-0.297-0.703v-1h-4v1q0 0.406-0.297 0.703t-0.703 0.297-0.703-0.297-0.297-0.703v-1h-1q-0.406 0-0.703-0.297t-0.297-0.703 0.297-0.703 0.703-0.297h1v-4h-1q-0.406 0-0.703-0.281t-0.297-0.703 0.297-0.719 0.703-0.297h1v-1q0-0.406 0.297-0.703t0.703-0.297 0.703 0.297 0.297 0.703v1h4v-1q0-0.406 0.297-0.703t0.703-0.297 0.703 0.297 0.297 0.703v1h1q0.406 0 0.703 0.297t0.297 0.719-0.297 0.703-0.703 0.281zM24 14v4h4v-4h-4zM14.016 24q0.828 0 1.406 0.594t0.578 1.406v0.188q-0.031 1.563-0.672 2.703t-1.75 1.813-2.484 0.984-3.094 0.313q-3.313 0-5.656-2.344t-2.344-5.656v-16q0-3.313 2.344-5.656t5.656-2.344q3.594 0 5.797 1.828t2.203 4.172q0 0.844-0.578 1.422t-1.406 0.578-1.422-0.578-0.594-1.422q0-0.594-0.188-0.984t-0.438-0.594-0.797-0.297-0.906-0.109-1.141-0.016h-0.531q-1.656 0-2.828 1.172t-1.172 2.828v16q0 1.656 1.172 2.828t2.828 1.172h1.672t0.906-0.109 0.797-0.313 0.438-0.594 0.188-0.984v0q0-0.813 0.594-1.406t1.422-0.594z" fill="#000000" />
</svg>
