<?xml version="1.0" encoding="utf-8"?>
<!-- Generated by IcoMoon.io -->
<!DOCTYPE svg PUBLIC "-//W3C//DTD SVG 1.1//EN" "http://www.w3.org/Graphics/SVG/1.1/DTD/svg11.dtd">
<svg version="1.1" xmlns="http://www.w3.org/2000/svg" xmlns:xlink="http://www.w3.org/1999/xlink" width="32" height="32" viewBox="0 0 32 32">
<g>
</g>
	<path d="M16 32q-3.25 0-6.219-1.266t-5.109-3.406-3.406-5.109-1.266-6.219 1.266-6.219 3.406-5.109 5.109-3.406 6.219-1.266 6.219 1.266 5.109 3.406 3.406 5.109 1.266 6.219-1.266 6.219-3.406 5.109-5.109 3.406-6.219 1.266zM17 6.531q-0.594-0.563-1-0.563t-1 0.563l-9 15.531q0 0.688 0.141 1.109t0.469 0.578 0.594 0.203 0.797 0.047h16q0.5 0 0.797-0.047t0.609-0.219 0.453-0.594 0.141-1.078zM16 9l8 13h-16z" fill="#000000" />
</svg>
