<?xml version="1.0" encoding="utf-8"?>
<!-- Generated by IcoMoon.io -->
<!DOCTYPE svg PUBLIC "-//W3C//DTD SVG 1.1//EN" "http://www.w3.org/Graphics/SVG/1.1/DTD/svg11.dtd">
<svg version="1.1" xmlns="http://www.w3.org/2000/svg" xmlns:xlink="http://www.w3.org/1999/xlink" width="32" height="32" viewBox="0 0 32 32">
<g>
</g>
	<path d="M16 32q-3.25 0-6.219-1.266t-5.109-3.406-3.406-5.109-1.266-6.219 1.266-6.219 3.406-5.109 5.109-3.406 6.219-1.266 6.219 1.266 5.109 3.406 3.406 5.109 1.266 6.219-1.266 6.219-3.406 5.109-5.109 3.406-6.219 1.266zM23.703 8.297q-0.328-0.328-0.797-0.328t-0.781 0.313l-6.125 6.125-6.094-6.094q-0.313-0.313-0.781-0.313t-0.797 0.328-0.328 0.781 0.344 0.797l6.063 6.094-6.063 6.063q-0.344 0.344-0.344 0.813t0.328 0.797 0.797 0.328 0.813-0.344l6.063-6.063 6.094 6.063q0.313 0.344 0.781 0.344t0.797-0.328 0.328-0.797-0.344-0.781l-6.063-6.094 6.094-6.125q0.344-0.313 0.344-0.781t-0.328-0.797z" fill="#000000" />
</svg>
