<?xml version="1.0" encoding="utf-8"?>
<!-- Generated by IcoMoon.io -->
<!DOCTYPE svg PUBLIC "-//W3C//DTD SVG 1.1//EN" "http://www.w3.org/Graphics/SVG/1.1/DTD/svg11.dtd">
<svg version="1.1" xmlns="http://www.w3.org/2000/svg" xmlns:xlink="http://www.w3.org/1999/xlink" width="32" height="32" viewBox="0 0 32 32">
<g>
</g>
	<path d="M16 32q-3.25 0-6.219-1.266t-5.109-3.406-3.406-5.109-1.266-6.219 1.266-6.219 3.406-5.109 5.109-3.406 6.219-1.266 6.219 1.266 5.109 3.406 3.406 5.109 1.266 6.219-1.266 6.219-3.406 5.109-5.109 3.406-6.219 1.266zM16 6q-2.719 0-5.016 1.328t-3.641 3.641-1.344 5.031 1.344 5.016 3.641 3.641 5.016 1.344 5.016-1.344 3.641-3.641 1.344-5.016-1.344-5.031-3.641-3.641-5.016-1.328zM16 24q-3.313 0-5.656-2.344t-2.344-5.656 2.344-5.656 5.656-2.344 5.656 2.344 2.344 5.656-2.344 5.656-5.656 2.344z" fill="#000000" />
</svg>
