<?xml version="1.0" encoding="utf-8"?>
<!-- Generated by IcoMoon.io -->
<!DOCTYPE svg PUBLIC "-//W3C//DTD SVG 1.1//EN" "http://www.w3.org/Graphics/SVG/1.1/DTD/svg11.dtd">
<svg version="1.1" xmlns="http://www.w3.org/2000/svg" xmlns:xlink="http://www.w3.org/1999/xlink" width="32" height="32" viewBox="0 0 32 32">
<g>
</g>
	<path d="M28 32h-24q-1.656 0-2.828-1.172t-1.172-2.828v-24q0-1.656 1.172-2.828t2.828-1.172h24q1.656 0 2.828 1.172t1.172 2.828v24q0 1.656-1.172 2.828t-2.828 1.172zM19 22h-1v-10q0-2.031-1.328-3.016t-3.672-0.984v0q-0.406 0-0.703 0.297t-0.297 0.703 0.297 0.703 0.703 0.297h0.031q1.344 0 2.156 0.578t0.813 1.422v10h-3q-0.406 0-0.703 0.297t-0.297 0.703 0.297 0.703 0.703 0.297h6q0.406 0 0.703-0.297t0.297-0.703-0.297-0.703-0.703-0.297z" fill="#000000" />
</svg>
