<?xml version="1.0" encoding="utf-8"?>
<!-- Generated by IcoMoon.io -->
<!DOCTYPE svg PUBLIC "-//W3C//DTD SVG 1.1//EN" "http://www.w3.org/Graphics/SVG/1.1/DTD/svg11.dtd">
<svg version="1.1" xmlns="http://www.w3.org/2000/svg" xmlns:xlink="http://www.w3.org/1999/xlink" width="32" height="32" viewBox="0 0 32 32">
<g>
</g>
	<path d="M16 32q-4.344 0-8.031-2.141t-5.828-5.828-2.141-8.031 2.141-8.031 5.828-5.828 8.031-2.141 8.031 2.141 5.828 5.828 2.141 8.031-2.141 8.031-5.828 5.828-8.031 2.141zM25.719 10.656l-1.375-1.375q-0.313-0.281-0.703-0.281t-0.703 0.281l-9.438 9.438-4.469-4.438q-0.281-0.281-0.688-0.281t-0.688 0.281l-1.375 1.375q-0.281 0.281-0.281 0.688t0.281 0.719l4.75 4.719q0.031 0.344 0.25 0.563l1.375 1.375q0.344 0.344 0.844 0.25 0.5 0.094 0.844-0.25l1.375-1.375q0.188-0.219 0.25-0.563l9.75-9.75q0.281-0.281 0.281-0.688t-0.281-0.688z" fill="#000000" />
</svg>
