<?xml version="1.0" encoding="utf-8"?>
<!-- Generated by IcoMoon.io -->
<!DOCTYPE svg PUBLIC "-//W3C//DTD SVG 1.1//EN" "http://www.w3.org/Graphics/SVG/1.1/DTD/svg11.dtd">
<svg version="1.1" xmlns="http://www.w3.org/2000/svg" xmlns:xlink="http://www.w3.org/1999/xlink" width="32" height="32" viewBox="0 0 32 32">
<g>
</g>
	<path d="M28 32h-24q-1.656 0-2.828-1.172t-1.172-2.828v-24q0-1.656 1.172-2.828t2.828-1.172h24q1.656 0 2.828 1.172t1.172 2.828v24q0 1.656-1.172 2.828t-2.828 1.172zM22 18q0-1.656-1.172-2.828t-2.828-1.172h-4q-1.063 0-2 0.531v-2.531q0-0.813 0.578-1.406t1.422-0.594h4q0.813 0 1.406 0.594t0.594 1.406q0 0.406 0.297 0.703t0.703 0.297 0.703-0.297 0.297-0.703q0-1.656-1.172-2.828t-2.828-1.172h-4q-1.656 0-2.828 1.172t-1.172 2.828v8q0 1.656 1.172 2.828t2.828 1.172h4q1.656 0 2.828-1.172t1.172-2.828v-2zM18 22h-4q-0.813 0-1.406-0.578t-0.594-1.422v-2q0-0.813 0.594-1.406t1.406-0.594h4q0.813 0 1.406 0.594t0.594 1.406v2q0 0.844-0.594 1.422t-1.406 0.578z" fill="#000000" />
</svg>
