<?xml version="1.0" encoding="utf-8"?>
<!-- Generated by IcoMoon.io -->
<!DOCTYPE svg PUBLIC "-//W3C//DTD SVG 1.1//EN" "http://www.w3.org/Graphics/SVG/1.1/DTD/svg11.dtd">
<svg version="1.1" xmlns="http://www.w3.org/2000/svg" xmlns:xlink="http://www.w3.org/1999/xlink" width="32" height="32" viewBox="0 0 32 32">
<g>
</g>
	<path d="M28 32h-24q-1.656 0-2.828-1.172t-1.172-2.828v-24q0-1.656 1.172-2.828t2.828-1.172h24q1.656 0 2.828 1.172t1.172 2.828v24q0 1.656-1.172 2.828t-2.828 1.172zM18 8h-7q-0.406 0-0.703 0.297t-0.297 0.703 0.297 0.703 0.703 0.297h7q0.844 0 1.422 0.594t0.578 1.406q0.125 1.344-0.5 2.5-1.031 1.906-4 7.5-0.5 0.688-0.5 1 0 0.375 0.313 0.688t0.688 0.313q0.406 0 0.703-0.297t0.297-0.703l4.5-8.5q0.5-0.938 0.5-2.5 0-1.656-1.172-2.828t-2.828-1.172z" fill="#000000" />
</svg>
