<?xml version="1.0" encoding="utf-8"?>
<!-- Generated by IcoMoon.io -->
<!DOCTYPE svg PUBLIC "-//W3C//DTD SVG 1.1//EN" "http://www.w3.org/Graphics/SVG/1.1/DTD/svg11.dtd">
<svg version="1.1" xmlns="http://www.w3.org/2000/svg" xmlns:xlink="http://www.w3.org/1999/xlink" width="32" height="32" viewBox="0 0 32 32">
<g>
</g>
	<path d="M28 32h-24q-1.656 0-2.828-1.172t-1.172-2.828v-24q0-1.656 1.172-2.828t2.828-1.172h24q1.656 0 2.828 1.172t1.172 2.828v24q0 1.656-1.172 2.828t-2.828 1.172zM23.719 11.031q0.281-0.281 0.281-0.688t-0.281-0.688l-1.375-1.375q-0.313-0.281-0.703-0.281t-0.703 0.281l-4.938 4.969-4.969-4.969q-0.281-0.281-0.688-0.281t-0.688 0.281l-1.375 1.375q-0.281 0.281-0.281 0.688t0.281 0.688l4.938 4.969-4.938 4.938q-0.281 0.313-0.281 0.703t0.281 0.703l1.375 1.375q0.281 0.281 0.688 0.281t0.688-0.281l4.969-4.969 4.938 4.969q0.313 0.281 0.703 0.281t0.703-0.281l1.375-1.375q0.281-0.313 0.281-0.703t-0.281-0.703l-4.969-4.938z" fill="#000000" />
</svg>
