<?xml version="1.0" encoding="utf-8"?>
<!-- Generated by IcoMoon.io -->
<!DOCTYPE svg PUBLIC "-//W3C//DTD SVG 1.1//EN" "http://www.w3.org/Graphics/SVG/1.1/DTD/svg11.dtd">
<svg version="1.1" xmlns="http://www.w3.org/2000/svg" xmlns:xlink="http://www.w3.org/1999/xlink" width="32" height="32" viewBox="0 0 32 32">
<g>
</g>
	<path d="M16 32q-4.344 0-8.031-2.141t-5.828-5.828-2.141-8.031 2.141-8.031 5.828-5.828 8.031-2.141 8.031 2.141 5.828 5.828 2.141 8.031-2.141 8.031-5.828 5.828-8.031 2.141zM24 15q0-0.406-0.297-0.703t-0.703-0.297h-14q-0.406 0-0.703 0.297t-0.297 0.703v2q0 0.406 0.297 0.703t0.703 0.297h14q0.406 0 0.703-0.297t0.297-0.703v-2z" fill="#000000" />
</svg>
